<svg xmlns="http://www.w3.org/2000/svg" xmlns:xlink="http://www.w3.org/1999/xlink" width="1248" zoomAndPan="magnify" viewBox="0 0 936 527.249983" height="703" preserveAspectRatio="xMidYMid meet" version="1.0"><defs><clipPath id="77dfff6a2f"><path d="M 269.894531 69.550781 L 666.082031 69.550781 L 666.082031 473.976562 L 269.894531 473.976562 Z M 269.894531 69.550781 " clip-rule="nonzero"/></clipPath></defs><g clip-path="url(#77dfff6a2f)"><path fill="#2d2d2d" d="M 276.40625 289.792969 L 287.523438 294.378906 C 289.011719 299.035156 290.902344 303.589844 293.171875 307.984375 L 288.570312 319.054688 C 286.890625 323.027344 287.789062 327.542969 290.808594 330.511719 L 308.277344 348.007812 C 311.328125 351.003906 315.671875 351.859375 319.667969 350.226562 L 330.773438 345.59375 C 335.117188 347.851562 339.675781 349.746094 344.382812 351.242188 L 348.957031 362.339844 C 350.570312 366.289062 354.371094 368.835938 358.644531 368.835938 L 383.296875 368.835938 C 387.566406 368.835938 391.371094 366.289062 392.976562 362.359375 L 397.554688 351.242188 C 400.457031 350.320312 403.308594 349.242188 406.089844 348.027344 L 406.089844 391.753906 C 406.089844 409.371094 420.417969 423.707031 438.03125 423.707031 L 546.832031 423.707031 L 546.832031 467.542969 C 546.832031 471.027344 549.65625 473.855469 553.140625 473.855469 L 647.984375 473.855469 C 651.46875 473.855469 654.292969 471.027344 654.292969 467.542969 L 654.292969 419.140625 C 654.292969 415.65625 651.46875 412.832031 647.984375 412.832031 L 644.363281 412.832031 L 644.363281 410.929688 L 656.308594 397.9375 C 662.820312 390.886719 666.125 382.4375 666.125 372.820312 L 666.125 309.402344 C 666.125 298.015625 656.863281 288.75 645.480469 288.75 C 642.15625 288.75 639.015625 289.539062 636.230469 290.9375 C 634.066406 284.875 629.148438 280.117188 623 278.167969 L 623 101.632812 C 623 84.011719 608.667969 69.675781 591.058594 69.675781 L 438.03125 69.675781 C 420.417969 69.675781 406.089844 84.011719 406.089844 101.632812 L 406.089844 187.519531 C 403.3125 186.300781 400.464844 185.222656 397.554688 184.300781 L 392.984375 173.203125 C 391.371094 169.253906 387.570312 166.703125 383.296875 166.703125 L 358.644531 166.703125 C 354.371094 166.703125 350.570312 169.253906 348.964844 173.183594 L 344.386719 184.296875 C 339.675781 185.796875 335.117188 187.6875 330.773438 189.949219 L 319.625 185.296875 C 315.671875 183.683594 311.328125 184.539062 308.238281 187.574219 L 290.855469 204.984375 C 287.789062 208 286.890625 212.515625 288.558594 216.457031 L 293.175781 227.558594 C 290.902344 231.949219 289.011719 236.507812 287.523438 241.164062 L 276.355469 245.769531 C 272.453125 247.417969 269.929688 251.210938 269.929688 255.429688 L 269.929688 280.113281 C 269.929688 284.332031 272.453125 288.125 276.40625 289.796875 Z M 406.089844 297.667969 C 405.597656 298.238281 405.082031 298.816406 404.539062 299.394531 C 387.109375 317.910156 357.875 318.792969 339.367188 301.359375 C 320.851562 283.941406 319.972656 254.683594 337.402344 236.148438 C 345.84375 227.179688 357.269531 222.035156 369.582031 221.664062 C 381.910156 221.300781 393.605469 225.734375 402.5625 234.171875 C 403.8125 235.351562 404.992188 236.597656 406.089844 237.878906 Z M 641.675781 461.234375 L 559.449219 461.234375 L 559.449219 425.453125 L 641.675781 425.453125 Z M 624.808594 307.433594 L 624.808594 334.914062 C 624.808594 338.398438 627.632812 341.222656 631.117188 341.222656 C 634.601562 341.222656 637.425781 338.398438 637.425781 334.914062 L 637.425781 309.402344 C 637.425781 304.972656 641.039062 301.371094 645.480469 301.371094 C 649.832031 301.371094 653.507812 305.046875 653.507812 309.402344 L 653.507812 372.820312 C 653.507812 379.246094 651.394531 384.660156 647.03125 389.382812 L 633.410156 404.195312 C 632.339844 405.359375 631.742188 406.882812 631.742188 408.46875 L 631.742188 412.832031 L 565.710938 412.832031 L 540.375 387.144531 C 540.296875 387.058594 540.21875 386.976562 540.132812 386.898438 L 534.460938 381.148438 C 530.023438 376.636719 527.863281 371.363281 527.863281 365.03125 L 527.863281 337.285156 C 527.863281 331.867188 529.792969 327.457031 533.765625 323.804688 L 538.757812 319.210938 L 538.757812 352.007812 C 538.757812 355.492188 541.582031 358.320312 545.066406 358.320312 C 548.550781 358.320312 551.375 355.492188 551.375 352.007812 L 551.375 252.609375 C 551.375 248.167969 554.976562 244.554688 559.402344 244.554688 C 559.941406 244.554688 560.46875 244.609375 560.980469 244.710938 C 561.027344 244.722656 561.074219 244.734375 561.121094 244.742188 C 564.726562 245.535156 567.433594 248.761719 567.433594 252.609375 L 567.433594 334.914062 C 567.433594 338.398438 570.257812 341.222656 573.742188 341.222656 C 577.226562 341.222656 580.050781 338.398438 580.050781 334.914062 L 580.050781 297.878906 C 580.050781 293.4375 583.652344 289.820312 588.078125 289.820312 C 589.070312 289.820312 590.015625 290.011719 590.894531 290.339844 C 591.007812 290.386719 591.125 290.429688 591.242188 290.472656 C 594.113281 291.703125 596.132812 294.558594 596.132812 297.878906 L 596.132812 334.914062 C 596.132812 338.398438 598.957031 341.222656 602.441406 341.222656 C 605.925781 341.222656 608.75 338.398438 608.75 334.914062 L 608.75 297.878906 C 608.75 293.4375 612.351562 289.820312 616.78125 289.820312 C 621.207031 289.820312 624.808594 293.433594 624.808594 297.878906 Z M 587.074219 277.226562 C 584.59375 277.347656 582.226562 277.90625 580.050781 278.832031 L 580.050781 252.609375 C 580.050781 244.542969 575.410156 237.542969 568.664062 234.140625 L 568.664062 217.523438 C 568.664062 214.039062 565.839844 211.214844 562.355469 211.214844 L 529.226562 211.214844 C 525.742188 211.214844 522.917969 214.039062 522.917969 217.523438 L 522.917969 250.664062 C 522.917969 254.148438 525.742188 256.972656 529.226562 256.972656 L 538.757812 256.972656 L 538.757812 302.070312 L 525.226562 314.515625 C 518.699219 320.519531 515.246094 328.390625 515.246094 337.285156 L 515.246094 365.035156 C 515.246094 372.542969 517.328125 379.28125 521.433594 385.148438 L 449.730469 385.148438 C 445.476562 385.148438 442.011719 381.386719 442.011719 376.757812 L 442.011719 116.46875 C 442.011719 111.839844 445.476562 108.074219 449.730469 108.074219 L 460.488281 108.074219 C 462.59375 108.074219 464.25 109.074219 465.390625 111.023438 L 468.285156 116.007812 C 472.277344 122.828125 478.972656 126.738281 486.660156 126.738281 L 542.425781 126.738281 C 550.144531 126.738281 556.84375 122.820312 560.796875 116.007812 L 563.71875 111.019531 C 564.851562 109.066406 566.5 108.074219 568.617188 108.074219 L 579.355469 108.074219 C 583.613281 108.074219 587.074219 111.839844 587.074219 116.464844 Z M 540.480469 244.351562 L 535.535156 244.351562 L 535.535156 223.832031 L 556.046875 223.832031 L 556.046875 232.210938 C 549.054688 233.359375 543.238281 238.039062 540.480469 244.351562 Z M 418.703125 101.632812 C 418.703125 90.96875 427.375 82.296875 438.03125 82.296875 L 591.054688 82.296875 C 601.710938 82.296875 610.382812 90.96875 610.382812 101.632812 L 610.382812 278.222656 C 607.371094 279.207031 604.664062 280.863281 602.4375 283.019531 C 601.589844 282.199219 600.667969 281.453125 599.691406 280.785156 L 599.691406 116.46875 C 599.691406 104.882812 590.566406 95.453125 579.355469 95.453125 L 568.617188 95.453125 C 561.972656 95.453125 556.207031 98.820312 552.820312 104.664062 L 549.898438 109.652344 C 548.203125 112.574219 545.621094 114.117188 542.425781 114.117188 L 486.660156 114.117188 C 482.640625 114.117188 480.371094 111.675781 479.183594 109.648438 L 476.289062 104.660156 C 472.859375 98.808594 467.101562 95.453125 460.488281 95.453125 L 449.730469 95.453125 C 438.515625 95.453125 429.394531 104.882812 429.394531 116.46875 L 429.394531 376.757812 C 429.394531 388.34375 438.515625 397.769531 449.730469 397.769531 L 533.132812 397.769531 L 546.265625 411.085938 L 438.03125 411.085938 C 427.371094 411.085938 418.703125 402.414062 418.703125 391.753906 Z M 282.546875 256.867188 L 295.105469 251.6875 C 296.898438 250.945312 298.253906 249.421875 298.773438 247.554688 C 300.375 241.839844 302.6875 236.269531 305.648438 230.996094 C 306.597656 229.304688 306.71875 227.273438 305.972656 225.480469 L 300.753906 212.929688 L 316.140625 197.519531 L 328.703125 202.761719 C 330.503906 203.511719 332.550781 203.386719 334.246094 202.421875 C 339.40625 199.492188 344.964844 197.183594 350.765625 195.5625 C 352.636719 195.039062 354.160156 193.6875 354.902344 191.890625 L 360.078125 179.328125 L 381.859375 179.328125 L 387.035156 191.890625 C 387.777344 193.6875 389.300781 195.039062 391.171875 195.5625 C 396.378906 197.015625 401.386719 199.027344 406.089844 201.542969 L 406.089844 220.695312 C 395.488281 212.75 382.601562 208.636719 369.199219 209.046875 C 353.519531 209.523438 338.96875 216.074219 328.214844 227.5 C 306.015625 251.105469 307.140625 288.367188 330.71875 310.554688 C 342.039062 321.214844 356.507812 326.496094 370.949219 326.496094 C 383.355469 326.496094 395.738281 322.582031 406.085938 314.847656 L 406.085938 334.015625 C 401.363281 336.527344 396.355469 338.53125 391.171875 339.980469 C 389.300781 340.503906 387.777344 341.859375 387.035156 343.652344 L 381.859375 356.21875 L 360.078125 356.21875 L 354.902344 343.652344 C 354.160156 341.859375 352.636719 340.503906 350.765625 339.980469 C 344.964844 338.359375 339.40625 336.050781 334.246094 333.121094 C 332.550781 332.15625 330.503906 332.03125 328.703125 332.785156 L 316.140625 338.027344 L 300.753906 322.613281 L 305.972656 310.0625 C 306.71875 308.273438 306.597656 306.238281 305.648438 304.546875 C 302.6875 299.273438 300.375 293.703125 298.773438 287.988281 C 298.25 286.121094 296.898438 284.597656 295.105469 283.855469 L 282.546875 278.679688 Z M 499.859375 149.160156 L 466.730469 149.160156 C 463.246094 149.160156 460.421875 151.984375 460.421875 155.46875 L 460.421875 188.609375 C 460.421875 192.097656 463.246094 194.921875 466.730469 194.921875 L 499.859375 194.921875 C 503.34375 194.921875 506.167969 192.097656 506.167969 188.609375 L 506.167969 155.46875 C 506.167969 151.984375 503.34375 149.160156 499.859375 149.160156 Z M 493.550781 182.300781 L 473.039062 182.300781 L 473.039062 161.78125 L 493.550781 161.78125 Z M 562.355469 149.160156 L 529.226562 149.160156 C 525.742188 149.160156 522.917969 151.984375 522.917969 155.46875 L 522.917969 188.609375 C 522.917969 192.097656 525.742188 194.921875 529.226562 194.921875 L 562.355469 194.921875 C 565.839844 194.921875 568.664062 192.097656 568.664062 188.609375 L 568.664062 155.46875 C 568.664062 151.984375 565.839844 149.160156 562.355469 149.160156 Z M 556.046875 182.300781 L 535.539062 182.300781 L 535.539062 161.78125 L 556.046875 161.78125 Z M 499.859375 211.210938 L 466.730469 211.210938 C 463.246094 211.210938 460.421875 214.039062 460.421875 217.523438 L 460.421875 250.664062 C 460.421875 254.148438 463.246094 256.972656 466.730469 256.972656 L 499.859375 256.972656 C 503.34375 256.972656 506.167969 254.148438 506.167969 250.664062 L 506.167969 217.523438 C 506.167969 214.039062 503.34375 211.210938 499.859375 211.210938 Z M 493.550781 244.351562 L 473.039062 244.351562 L 473.039062 223.832031 L 493.550781 223.832031 Z M 499.859375 273.242188 L 466.730469 273.242188 C 463.246094 273.242188 460.421875 276.066406 460.421875 279.550781 L 460.421875 312.714844 C 460.421875 316.199219 463.246094 319.023438 466.730469 319.023438 L 499.859375 319.023438 C 503.34375 319.023438 506.167969 316.199219 506.167969 312.714844 L 506.167969 279.550781 C 506.167969 276.066406 503.34375 273.242188 499.859375 273.242188 Z M 493.550781 306.40625 L 473.039062 306.40625 L 473.039062 285.863281 L 493.550781 285.863281 Z M 393.457031 250.765625 C 395.921875 253.230469 395.921875 257.226562 393.457031 259.691406 L 368.382812 284.773438 C 367.152344 286.007812 365.539062 286.625 363.921875 286.625 C 362.308594 286.625 360.695312 286.007812 359.460938 284.773438 L 348.480469 273.789062 C 346.015625 271.324219 346.015625 267.328125 348.480469 264.863281 C 350.941406 262.398438 354.9375 262.398438 357.402344 264.863281 L 363.921875 271.390625 L 384.539062 250.765625 C 387 248.300781 390.996094 248.300781 393.457031 250.765625 Z M 393.457031 250.765625 " fill-opacity="1" fill-rule="nonzero"/></g></svg>