<svg xmlns="http://www.w3.org/2000/svg" xmlns:xlink="http://www.w3.org/1999/xlink" width="1080" zoomAndPan="magnify" viewBox="0 0 810 1012.49997" height="1350" preserveAspectRatio="xMidYMid meet" version="1.0"><defs><clipPath id="7b3c2423ea"><path d="M 55.121094 35.308594 L 754.523438 35.308594 L 754.523438 976.84375 L 55.121094 976.84375 Z M 55.121094 35.308594 " clip-rule="nonzero"/></clipPath></defs><g clip-path="url(#7b3c2423ea)"><path fill="#000000" d="M 196.972656 399.617188 L 210.761719 399.617188 C 210.761719 407.996094 213.71875 416.375 218.644531 423.273438 C 226.03125 432.640625 236.867188 438.0625 249.179688 438.0625 L 250.164062 438.0625 C 256.074219 438.0625 261.988281 440.03125 266.417969 444.46875 C 270.851562 448.90625 273.316406 454.324219 273.316406 460.242188 C 273.316406 466.15625 273.316406 465.167969 271.835938 467.632812 C 267.40625 479.957031 269.375 492.769531 276.269531 503.121094 C 283.660156 513.46875 295.972656 519.878906 308.285156 519.878906 C 320.597656 519.878906 325.03125 516.921875 331.925781 511.5 C 335.867188 508.542969 340.792969 507.0625 345.71875 507.0625 C 355.570312 507.0625 364.433594 513.46875 366.898438 523.328125 C 371.824219 540.085938 386.597656 551.421875 404.332031 551.421875 C 422.0625 551.421875 436.835938 540.578125 441.761719 523.328125 C 444.71875 513.964844 453.585938 507.0625 463.433594 507.0625 C 473.285156 507.0625 472.792969 508.542969 476.734375 511.5 C 488.554688 520.863281 503.824219 522.34375 517.613281 515.933594 C 530.914062 509.527344 539.777344 495.726562 539.777344 481.433594 C 539.777344 467.140625 538.792969 472.5625 537.316406 468.125 C 534.851562 461.226562 535.835938 453.832031 540.269531 447.917969 C 544.703125 442.003906 551.105469 438.554688 558.988281 438.554688 C 570.316406 438.554688 579.675781 435.105469 587.0625 427.710938 C 594.449219 420.316406 598.882812 410.460938 598.882812 399.617188 L 612.675781 399.617188 C 625.480469 399.617188 635.824219 389.265625 635.824219 376.453125 L 635.824219 321.742188 C 635.824219 308.929688 625.480469 298.578125 612.675781 298.578125 L 598.882812 298.578125 C 598.882812 290.199219 595.925781 281.820312 591.003906 274.921875 C 583.613281 265.554688 572.777344 260.132812 560.464844 260.132812 L 559.480469 260.132812 C 553.078125 260.132812 547.660156 258.164062 543.71875 253.726562 C 539.285156 249.292969 536.824219 243.378906 536.824219 237.460938 C 536.824219 231.546875 536.824219 232.535156 538.300781 230.070312 C 542.734375 217.746094 540.761719 204.933594 533.867188 195.074219 C 521.554688 177.332031 495.449219 172.894531 478.210938 186.203125 C 472.300781 190.640625 464.914062 192.117188 457.523438 189.652344 C 450.628906 187.191406 445.210938 181.769531 443.242188 174.867188 C 438.316406 157.617188 423.539062 146.773438 405.808594 146.773438 C 388.078125 146.773438 373.300781 157.617188 368.375 174.867188 C 365.417969 184.234375 357.046875 190.640625 347.195312 190.640625 C 337.34375 190.640625 338.824219 189.652344 333.898438 186.203125 C 322.078125 176.839844 306.808594 175.359375 293.015625 182.261719 C 279.71875 188.667969 270.851562 202.46875 270.851562 216.761719 C 270.851562 231.054688 271.835938 225.632812 273.316406 230.070312 C 275.777344 236.96875 274.792969 244.363281 270.359375 250.277344 C 265.925781 256.191406 259.523438 259.640625 251.644531 259.640625 C 240.808594 259.640625 230.957031 263.09375 223.570312 270.484375 C 216.179688 277.878906 211.746094 288.226562 211.746094 298.578125 L 197.957031 298.578125 C 185.152344 298.578125 174.808594 308.929688 174.808594 321.742188 L 174.808594 376.453125 C 174.808594 389.265625 185.152344 399.617188 197.957031 399.617188 Z M 575.734375 415.390625 C 572.777344 418.347656 567.359375 421.796875 558.496094 421.304688 C 545.6875 421.304688 533.867188 427.21875 526.480469 437.570312 C 519.089844 447.917969 517.121094 461.226562 521.554688 473.054688 C 522.539062 476.011719 523.03125 478.476562 523.03125 480.941406 C 523.03125 489.320312 518.105469 496.714844 510.226562 500.65625 C 502.34375 504.597656 493.972656 503.613281 487.078125 498.191406 C 480.179688 492.769531 471.808594 490.304688 463.433594 490.304688 C 446.195312 490.304688 430.925781 501.640625 426 518.398438 C 422.554688 530.226562 412.703125 534.171875 404.824219 534.171875 C 396.941406 534.171875 387.089844 529.734375 383.644531 518.398438 C 378.71875 501.640625 363.449219 490.304688 346.210938 490.304688 C 328.972656 490.304688 329.464844 493.261719 322.570312 498.191406 C 312.226562 506.078125 297.449219 503.121094 290.554688 493.261719 C 286.613281 487.347656 285.628906 480.449219 288.089844 473.054688 C 289.570312 468.621094 290.554688 464.183594 290.554688 460.242188 C 290.554688 449.890625 286.121094 439.539062 278.734375 432.640625 C 271.34375 425.246094 261.492188 421.304688 250.65625 421.304688 C 243.269531 421.304688 236.867188 418.347656 232.433594 412.925781 C 229.480469 408.980469 228 404.054688 227.507812 399.125 L 312.71875 399.125 C 330.941406 432.640625 366.40625 453.832031 404.824219 453.832031 C 443.242188 453.832031 478.703125 432.640625 496.925781 399.125 L 582.628906 399.125 C 582.628906 405.039062 580.167969 410.953125 575.734375 414.894531 Z M 331.925781 399.617188 L 477.71875 399.617188 C 461.464844 423.273438 433.882812 437.570312 404.824219 437.570312 C 375.761719 437.570312 348.179688 422.78125 331.925781 399.617188 Z M 233.910156 282.3125 C 236.867188 279.355469 241.792969 275.90625 249.671875 276.398438 L 250.65625 276.398438 C 263.464844 276.398438 275.285156 269.992188 282.179688 260.132812 C 289.570312 249.785156 291.539062 236.476562 287.105469 224.648438 C 286.121094 221.691406 285.628906 219.226562 285.628906 216.761719 C 285.628906 208.875 290.554688 200.988281 298.433594 197.046875 C 301.882812 195.074219 311.734375 191.625 321.582031 199.511719 C 328.480469 204.933594 336.359375 207.398438 345.226562 207.398438 C 362.957031 207.398438 377.734375 196.0625 382.660156 179.304688 C 386.105469 167.476562 395.957031 163.039062 403.835938 163.039062 C 411.71875 163.039062 421.570312 167.476562 425.015625 179.304688 C 428.464844 191.625 438.316406 201.484375 450.136719 205.425781 C 462.449219 209.367188 475.75 206.90625 486.089844 199.019531 C 496.433594 191.132812 511.210938 194.089844 518.105469 203.945312 C 522.046875 209.863281 523.03125 216.761719 520.570312 224.15625 C 519.089844 228.589844 518.105469 233.027344 518.105469 236.96875 C 518.105469 247.320312 522.539062 257.671875 529.925781 265.0625 C 537.316406 271.964844 546.671875 275.90625 557.507812 275.90625 C 568.34375 275.90625 571.792969 278.371094 576.226562 284.285156 C 579.179688 288.226562 581.152344 293.15625 581.152344 298.085938 L 495.449219 298.085938 C 477.226562 264.570312 441.761719 243.375 403.34375 243.375 C 364.925781 243.375 329.464844 264.570312 311.242188 298.085938 L 225.539062 298.085938 C 225.539062 292.171875 228 286.257812 232.433594 281.820312 Z M 477.71875 298.085938 L 331.925781 298.085938 C 348.179688 274.429688 375.761719 260.132812 404.824219 260.132812 C 433.882812 260.132812 460.972656 274.921875 477.71875 298.085938 Z M 190.074219 321.25 C 190.074219 317.800781 193.03125 314.84375 196.480469 314.84375 L 612.179688 314.84375 C 615.628906 314.84375 618.585938 317.800781 618.585938 321.25 L 618.585938 375.960938 C 618.585938 379.410156 615.628906 382.367188 612.179688 382.367188 L 196.480469 382.367188 C 193.03125 382.367188 190.074219 379.410156 190.074219 375.960938 Z M 664.882812 35.878906 L 144.761719 35.878906 C 95.507812 35.878906 55.121094 76.292969 55.121094 125.582031 L 55.121094 908.753906 C 55.121094 942.269531 79.253906 971.347656 110.777344 975.785156 C 136.882812 979.726562 162.492188 967.40625 176.285156 945.226562 C 176.285156 945.226562 176.285156 944.734375 177.269531 944.734375 C 178.253906 944.734375 178.253906 944.734375 178.746094 945.71875 C 190.570312 964.941406 211.253906 976.277344 233.910156 976.277344 C 256.570312 976.277344 277.253906 964.941406 289.570312 945.71875 C 290.0625 944.734375 290.554688 944.734375 291.046875 944.734375 C 291.539062 944.734375 292.03125 944.734375 292.523438 945.71875 C 304.34375 964.941406 325.03125 976.277344 347.6875 976.277344 C 370.34375 976.277344 391.03125 964.941406 403.34375 945.71875 C 403.835938 944.734375 404.332031 944.734375 404.824219 944.734375 C 405.316406 944.734375 405.808594 944.734375 406.300781 945.71875 C 418.121094 964.941406 438.808594 976.277344 461.464844 976.277344 C 484.121094 976.277344 504.808594 964.941406 517.121094 945.71875 C 517.613281 944.734375 518.105469 944.734375 518.597656 944.734375 C 519.089844 944.734375 519.585938 944.734375 520.078125 945.71875 C 531.898438 964.941406 552.585938 976.277344 575.242188 976.277344 C 597.898438 976.277344 618.585938 964.941406 630.898438 945.226562 C 631.390625 944.242188 632.375 944.242188 632.375 944.242188 C 632.867188 944.242188 632.867188 944.242188 633.359375 944.734375 C 647.152344 966.914062 672.761719 979.234375 698.867188 975.292969 C 730.390625 970.855469 754.523438 942.269531 754.523438 908.261719 L 754.523438 125.582031 C 754.523438 76.292969 714.136719 35.878906 664.882812 35.878906 Z M 737.777344 908.753906 C 737.777344 933.890625 720.046875 955.578125 696.40625 959.027344 C 677.195312 961.492188 657.988281 952.621094 647.644531 936.355469 C 644.195312 930.933594 638.777344 927.976562 632.375 927.976562 C 625.972656 927.976562 620.0625 931.425781 616.613281 936.847656 C 607.75 951.140625 591.988281 960.011719 575.242188 960.011719 C 558.496094 960.011719 543.226562 951.632812 533.867188 937.339844 C 530.421875 931.917969 524.507812 928.46875 518.105469 928.46875 C 511.703125 928.46875 505.792969 931.917969 502.34375 937.339844 C 493.480469 951.632812 477.71875 960.011719 460.972656 960.011719 C 444.226562 960.011719 428.957031 951.632812 419.597656 937.339844 C 416.152344 931.917969 410.242188 928.46875 403.835938 928.46875 C 397.433594 928.46875 391.523438 931.917969 388.078125 937.339844 C 379.210938 951.632812 363.449219 960.011719 346.703125 960.011719 C 329.957031 960.011719 314.6875 951.632812 305.328125 937.339844 C 301.882812 931.917969 295.972656 928.46875 289.570312 928.46875 C 283.164062 928.46875 277.253906 931.917969 273.808594 937.339844 C 264.941406 951.632812 249.179688 960.011719 232.433594 960.011719 C 215.6875 960.011719 199.925781 951.632812 191.0625 937.339844 C 187.613281 931.917969 181.703125 928.46875 175.300781 928.46875 C 168.898438 928.46875 163.480469 931.917969 160.03125 936.847656 C 149.6875 953.605469 130.972656 962.476562 111.269531 959.519531 C 87.628906 956.070312 69.898438 934.382812 69.898438 908.753906 L 69.898438 125.582031 C 69.898438 85.164062 102.898438 52.636719 142.792969 52.636719 L 662.914062 52.636719 C 703.300781 52.636719 735.808594 85.65625 735.808594 125.582031 L 735.808594 908.753906 Z M 142.300781 632.746094 C 142.300781 628.308594 146.238281 624.367188 150.671875 624.367188 L 265.925781 624.367188 C 270.359375 624.367188 274.300781 628.308594 274.300781 632.746094 C 274.300781 637.179688 270.359375 641.125 265.925781 641.125 L 150.671875 641.125 C 146.238281 641.125 142.300781 637.179688 142.300781 632.746094 Z M 670.300781 714.070312 C 670.300781 718.503906 666.359375 722.449219 661.929688 722.449219 L 546.671875 722.449219 C 542.242188 722.449219 538.300781 718.503906 538.300781 714.070312 C 538.300781 709.632812 542.242188 705.691406 546.671875 705.691406 L 661.929688 705.691406 C 666.359375 705.691406 670.300781 709.632812 670.300781 714.070312 Z M 426.496094 803.277344 C 426.496094 807.714844 422.554688 811.65625 418.121094 811.65625 L 150.671875 811.65625 C 146.238281 811.65625 142.300781 807.714844 142.300781 803.277344 C 142.300781 798.84375 146.238281 794.902344 150.671875 794.902344 L 418.121094 794.902344 C 422.554688 794.902344 426.496094 798.84375 426.496094 803.277344 Z M 670.300781 803.277344 C 670.300781 807.714844 666.359375 811.65625 661.929688 811.65625 L 546.671875 811.65625 C 542.242188 811.65625 538.300781 807.714844 538.300781 803.277344 C 538.300781 798.84375 542.242188 794.902344 546.671875 794.902344 L 661.929688 794.902344 C 666.359375 794.902344 670.300781 798.84375 670.300781 803.277344 Z M 670.300781 632.746094 C 670.300781 637.179688 666.359375 641.125 661.929688 641.125 L 347.6875 641.125 C 343.253906 641.125 339.316406 637.179688 339.316406 632.746094 C 339.316406 628.308594 343.253906 624.367188 347.6875 624.367188 L 661.929688 624.367188 C 666.359375 624.367188 670.300781 628.308594 670.300781 632.746094 Z M 472.792969 714.070312 C 472.792969 718.503906 468.851562 722.449219 464.417969 722.449219 L 150.179688 722.449219 C 145.746094 722.449219 141.808594 718.503906 141.808594 714.070312 C 141.808594 709.632812 145.746094 705.691406 150.179688 705.691406 L 464.417969 705.691406 C 468.851562 705.691406 472.792969 709.632812 472.792969 714.070312 Z M 472.792969 714.070312 " fill-opacity="1" fill-rule="nonzero"/></g></svg>