<svg xmlns="http://www.w3.org/2000/svg" xmlns:xlink="http://www.w3.org/1999/xlink" width="1080" zoomAndPan="magnify" viewBox="0 0 810 1012.49997" height="1350" preserveAspectRatio="xMidYMid meet" version="1.0"><defs><clipPath id="6ce848fa75"><path d="M 16.84375 110 L 793.460938 110 L 793.460938 902.28125 L 16.84375 902.28125 Z M 16.84375 110 " clip-rule="nonzero"/></clipPath></defs><g clip-path="url(#6ce848fa75)"><path fill="#2d2d2d" d="M 29.609375 541.425781 L 51.402344 550.410156 C 54.316406 559.53125 58.027344 568.457031 62.476562 577.066406 L 53.449219 598.75 C 50.160156 606.539062 51.917969 615.386719 57.84375 621.199219 L 92.085938 655.484375 C 98.0625 661.347656 106.582031 663.023438 114.414062 659.824219 L 136.179688 650.746094 C 144.699219 655.175781 153.632812 658.882812 162.863281 661.816406 L 171.824219 683.5625 C 174.984375 691.292969 182.441406 696.289062 190.816406 696.289062 L 239.136719 696.289062 C 247.511719 696.289062 254.964844 691.292969 258.109375 683.597656 L 267.089844 661.816406 C 272.78125 660.007812 278.363281 657.902344 283.816406 655.515625 L 283.816406 741.1875 C 283.816406 775.707031 311.90625 803.792969 346.433594 803.792969 L 559.707031 803.792969 L 559.707031 889.679688 C 559.707031 896.507812 565.242188 902.042969 572.074219 902.042969 L 757.988281 902.042969 C 764.820312 902.042969 770.355469 896.507812 770.355469 889.679688 L 770.355469 794.847656 C 770.355469 788.019531 764.820312 782.488281 757.988281 782.488281 L 750.886719 782.488281 L 750.886719 778.757812 L 774.304688 753.304688 C 787.074219 739.488281 793.550781 722.933594 793.550781 704.09375 L 793.550781 579.847656 C 793.550781 557.53125 775.394531 539.378906 753.078125 539.378906 C 746.566406 539.378906 740.40625 540.921875 734.945312 543.664062 C 730.703125 531.789062 721.066406 522.46875 709.011719 518.648438 L 709.011719 172.769531 C 709.011719 138.246094 680.921875 110.160156 646.398438 110.160156 L 346.433594 110.160156 C 311.910156 110.160156 283.820312 138.246094 283.820312 172.769531 L 283.820312 341.042969 C 278.371094 338.65625 272.789062 336.546875 267.09375 334.734375 L 258.128906 312.992188 C 254.96875 305.257812 247.515625 300.261719 239.136719 300.261719 L 190.816406 300.261719 C 182.441406 300.261719 174.988281 305.257812 171.84375 312.953125 L 162.863281 334.734375 C 153.632812 337.667969 144.699219 341.375 136.183594 345.804688 L 114.332031 336.691406 C 106.582031 333.527344 98.0625 335.207031 92.003906 341.152344 L 57.9375 375.265625 C 51.921875 381.167969 50.160156 390.015625 53.429688 397.738281 L 62.480469 419.488281 C 58.027344 428.097656 54.320312 437.019531 51.402344 446.144531 L 29.511719 455.167969 C 21.863281 458.398438 16.917969 465.828125 16.917969 474.097656 L 16.917969 522.457031 C 16.917969 530.722656 21.863281 538.15625 29.613281 541.425781 Z M 283.816406 556.847656 C 282.855469 557.972656 281.84375 559.101562 280.777344 560.234375 C 246.613281 596.511719 189.308594 598.242188 153.027344 564.085938 C 116.734375 529.957031 115.007812 472.636719 149.171875 436.320312 C 165.722656 418.746094 188.121094 408.667969 212.253906 407.941406 C 236.421875 407.226562 259.347656 415.921875 276.90625 432.449219 C 279.355469 434.761719 281.664062 437.199219 283.816406 439.714844 Z M 745.621094 877.3125 L 584.4375 877.3125 L 584.4375 807.210938 L 745.621094 807.210938 Z M 712.558594 575.984375 L 712.558594 629.824219 C 712.558594 636.652344 718.097656 642.1875 724.925781 642.1875 C 731.757812 642.1875 737.292969 636.652344 737.292969 629.824219 L 737.292969 579.84375 C 737.292969 571.164062 744.371094 564.105469 753.078125 564.105469 C 761.609375 564.105469 768.816406 571.3125 768.816406 579.84375 L 768.816406 704.09375 C 768.816406 716.683594 764.671875 727.289062 756.121094 736.539062 L 729.417969 765.5625 C 727.316406 767.847656 726.152344 770.832031 726.152344 773.933594 L 726.152344 782.484375 L 596.710938 782.484375 L 547.050781 732.15625 C 546.894531 731.992188 546.738281 731.832031 546.574219 731.675781 L 535.457031 720.410156 C 526.753906 711.570312 522.523438 701.242188 522.523438 688.835938 L 522.523438 634.472656 C 522.523438 623.855469 526.308594 615.214844 534.09375 608.058594 L 543.875 599.0625 L 543.875 663.316406 C 543.875 670.148438 549.414062 675.679688 556.242188 675.679688 C 563.074219 675.679688 568.609375 670.144531 568.609375 663.316406 L 568.609375 468.570312 C 568.609375 459.867188 575.667969 452.785156 584.347656 452.785156 C 585.40625 452.785156 586.4375 452.894531 587.4375 453.097656 C 587.53125 453.117188 587.625 453.140625 587.71875 453.160156 C 594.78125 454.714844 600.089844 461.027344 600.089844 468.570312 L 600.089844 629.824219 C 600.089844 636.652344 605.625 642.1875 612.453125 642.1875 C 619.285156 642.1875 624.820312 636.652344 624.820312 629.824219 L 624.820312 557.261719 C 624.820312 548.558594 631.882812 541.480469 640.558594 541.480469 C 642.503906 541.480469 644.355469 541.847656 646.074219 542.492188 C 646.296875 542.585938 646.53125 542.667969 646.757812 542.75 C 652.390625 545.164062 656.347656 550.761719 656.347656 557.261719 L 656.347656 629.824219 C 656.347656 636.652344 661.882812 642.1875 668.710938 642.1875 C 675.542969 642.1875 681.078125 636.652344 681.078125 629.824219 L 681.078125 557.261719 C 681.078125 548.558594 688.140625 541.480469 696.820312 541.480469 C 705.5 541.480469 712.558594 548.558594 712.558594 557.261719 Z M 638.589844 516.804688 C 633.726562 517.039062 629.085938 518.132812 624.820312 519.945312 L 624.820312 468.574219 C 624.820312 452.769531 615.726562 439.054688 602.503906 432.386719 L 602.503906 399.828125 C 602.503906 393 596.964844 387.464844 590.136719 387.464844 L 525.199219 387.464844 C 518.367188 387.464844 512.832031 393 512.832031 399.828125 L 512.832031 464.761719 C 512.832031 471.589844 518.367188 477.125 525.199219 477.125 L 543.875 477.125 L 543.875 565.476562 L 517.355469 589.859375 C 504.554688 601.621094 497.792969 617.046875 497.792969 634.472656 L 497.792969 688.835938 C 497.792969 703.550781 501.875 716.753906 509.917969 728.25 L 369.363281 728.25 C 361.023438 728.25 354.238281 720.875 354.238281 711.808594 L 354.238281 201.835938 C 354.238281 192.769531 361.023438 185.394531 369.363281 185.394531 L 390.453125 185.394531 C 394.582031 185.394531 397.824219 187.351562 400.0625 191.167969 L 405.738281 200.9375 C 413.5625 214.296875 426.6875 221.957031 441.753906 221.957031 L 551.070312 221.957031 C 566.199219 221.957031 579.332031 214.28125 587.082031 200.9375 L 592.808594 191.160156 C 595.027344 187.332031 598.261719 185.390625 602.414062 185.390625 L 623.460938 185.390625 C 631.800781 185.390625 638.585938 192.769531 638.585938 201.832031 L 638.585938 516.804688 Z M 547.253906 452.394531 L 537.5625 452.394531 L 537.5625 412.191406 L 577.769531 412.191406 L 577.769531 428.605469 C 564.066406 430.859375 552.660156 440.023438 547.253906 452.394531 Z M 308.546875 172.769531 C 308.546875 151.878906 325.542969 134.886719 346.429688 134.886719 L 646.394531 134.886719 C 667.28125 134.886719 684.277344 151.878906 684.277344 172.769531 L 684.277344 518.757812 C 678.378906 520.6875 673.070312 523.929688 668.707031 528.148438 C 667.042969 526.542969 665.238281 525.085938 663.320312 523.777344 L 663.320312 201.835938 C 663.320312 179.136719 645.4375 160.667969 623.460938 160.667969 L 602.414062 160.667969 C 589.382812 160.667969 578.085938 167.257812 571.445312 178.707031 L 565.71875 188.480469 C 562.394531 194.203125 557.328125 197.230469 551.070312 197.230469 L 441.753906 197.230469 C 433.878906 197.230469 429.429688 192.453125 427.101562 188.476562 L 421.421875 178.703125 C 414.703125 167.238281 403.414062 160.667969 390.453125 160.667969 L 369.363281 160.667969 C 347.382812 160.667969 329.503906 179.136719 329.503906 201.835938 L 329.503906 711.808594 C 329.503906 734.511719 347.382812 752.976562 369.363281 752.976562 L 532.851562 752.976562 L 558.59375 779.0625 L 346.429688 779.0625 C 325.539062 779.0625 308.546875 762.070312 308.546875 741.183594 Z M 41.644531 476.910156 L 66.265625 466.761719 C 69.78125 465.3125 72.433594 462.328125 73.457031 458.667969 C 76.59375 447.472656 81.128906 436.558594 86.933594 426.226562 C 88.792969 422.914062 89.027344 418.929688 87.570312 415.421875 L 77.335938 390.832031 L 107.496094 360.632812 L 132.121094 370.90625 C 135.652344 372.375 139.667969 372.132812 142.988281 370.246094 C 153.105469 364.5 164 359.976562 175.371094 356.804688 C 179.039062 355.78125 182.027344 353.125 183.480469 349.609375 L 193.628906 324.992188 L 236.320312 324.992188 L 246.46875 349.609375 C 247.921875 353.125 250.910156 355.78125 254.578125 356.804688 C 264.78125 359.652344 274.597656 363.59375 283.816406 368.523438 L 283.816406 406.039062 C 263.039062 390.476562 237.773438 382.417969 211.503906 383.226562 C 180.773438 384.15625 152.242188 396.988281 131.164062 419.375 C 87.652344 465.628906 89.859375 538.625 136.078125 582.097656 C 158.265625 602.988281 186.625 613.335938 214.9375 613.335938 C 239.257812 613.335938 263.527344 605.664062 283.8125 590.507812 L 283.8125 628.066406 C 274.554688 632.984375 264.738281 636.917969 254.574219 639.753906 C 250.910156 640.777344 247.917969 643.429688 246.46875 646.949219 L 236.320312 671.566406 L 193.625 671.566406 L 183.476562 646.949219 C 182.027344 643.429688 179.035156 640.777344 175.371094 639.753906 C 163.996094 636.578125 153.101562 632.054688 142.988281 626.3125 C 139.664062 624.425781 135.648438 624.179688 132.121094 625.652344 L 107.496094 635.921875 L 77.332031 605.726562 L 87.566406 581.136719 C 89.027344 577.628906 88.792969 573.644531 86.933594 570.332031 C 81.125 559.996094 76.59375 549.082031 73.457031 537.890625 C 72.429688 534.226562 69.777344 531.242188 66.261719 529.792969 L 41.644531 519.644531 Z M 467.625 265.890625 L 402.6875 265.890625 C 395.855469 265.890625 390.320312 271.425781 390.320312 278.25 L 390.320312 343.183594 C 390.320312 350.011719 395.855469 355.546875 402.6875 355.546875 L 467.625 355.546875 C 474.457031 355.546875 479.992188 350.011719 479.992188 343.183594 L 479.992188 278.25 C 479.992188 271.425781 474.457031 265.890625 467.625 265.890625 Z M 455.261719 330.820312 L 415.054688 330.820312 L 415.054688 290.617188 L 455.261719 290.617188 Z M 590.136719 265.890625 L 525.199219 265.890625 C 518.367188 265.890625 512.832031 271.425781 512.832031 278.25 L 512.832031 343.183594 C 512.832031 350.011719 518.367188 355.546875 525.199219 355.546875 L 590.136719 355.546875 C 596.964844 355.546875 602.503906 350.011719 602.503906 343.183594 L 602.503906 278.25 C 602.503906 271.425781 596.964844 265.890625 590.136719 265.890625 Z M 577.773438 330.820312 L 537.566406 330.820312 L 537.566406 290.617188 L 577.773438 290.617188 Z M 467.625 387.464844 L 402.6875 387.464844 C 395.855469 387.464844 390.320312 393 390.320312 399.828125 L 390.320312 464.757812 C 390.320312 471.585938 395.855469 477.121094 402.6875 477.121094 L 467.625 477.121094 C 474.457031 477.121094 479.992188 471.585938 479.992188 464.757812 L 479.992188 399.828125 C 479.992188 393 474.457031 387.464844 467.625 387.464844 Z M 455.261719 452.394531 L 415.054688 452.394531 L 415.054688 412.191406 L 455.261719 412.191406 Z M 467.625 508.996094 L 402.6875 508.996094 C 395.855469 508.996094 390.320312 514.53125 390.320312 521.359375 L 390.320312 586.332031 C 390.320312 593.160156 395.855469 598.695312 402.6875 598.695312 L 467.625 598.695312 C 474.457031 598.695312 479.992188 593.160156 479.992188 586.332031 L 479.992188 521.359375 C 479.992188 514.53125 474.457031 508.996094 467.625 508.996094 Z M 455.261719 573.96875 L 415.054688 573.96875 L 415.054688 533.722656 L 455.261719 533.722656 Z M 259.058594 464.960938 C 263.890625 469.789062 263.890625 477.617188 259.058594 482.445312 L 209.90625 531.59375 C 207.492188 534.003906 204.328125 535.210938 201.164062 535.210938 C 197.996094 535.210938 194.832031 534.003906 192.417969 531.59375 L 170.890625 510.066406 C 166.058594 505.238281 166.058594 497.410156 170.890625 492.582031 C 175.71875 487.75 183.550781 487.75 188.375 492.582031 L 201.164062 505.363281 L 241.574219 464.960938 C 246.402344 460.132812 254.230469 460.132812 259.058594 464.960938 Z M 259.058594 464.960938 " fill-opacity="1" fill-rule="nonzero"/></g></svg>