<svg xmlns="http://www.w3.org/2000/svg" xmlns:xlink="http://www.w3.org/1999/xlink" width="1080" zoomAndPan="magnify" viewBox="0 0 810 1012.49997" height="1350" preserveAspectRatio="xMidYMid meet" version="1.0"><defs><clipPath id="8760c4e333"><path d="M 132.742188 19.140625 L 772.925781 19.140625 L 772.925781 992.910156 L 132.742188 992.910156 Z M 132.742188 19.140625 " clip-rule="nonzero"/></clipPath></defs><path fill="#000000" d="M 184.722656 158.523438 L 645.777344 158.523438 C 649.996094 158.523438 653.417969 155.101562 653.417969 150.882812 C 653.417969 146.664062 649.996094 143.242188 645.777344 143.242188 L 184.722656 143.242188 C 180.503906 143.242188 177.082031 146.664062 177.082031 150.882812 C 177.082031 155.101562 180.5 158.523438 184.722656 158.523438 Z M 184.722656 158.523438 " fill-opacity="1" fill-rule="nonzero"/><path fill="#000000" d="M 303.117188 101.058594 L 434.015625 101.058594 C 438.238281 101.058594 441.65625 97.636719 441.65625 93.417969 C 441.65625 89.195312 438.238281 85.777344 434.015625 85.777344 L 303.117188 85.777344 C 298.894531 85.777344 295.476562 89.195312 295.476562 93.417969 C 295.476562 97.636719 298.894531 101.058594 303.117188 101.058594 Z M 303.117188 101.058594 " fill-opacity="1" fill-rule="nonzero"/><path fill="#000000" d="M 482.496094 105.730469 C 489.296875 105.730469 494.796875 100.203125 494.796875 93.402344 C 494.796875 86.628906 489.296875 81.101562 482.496094 81.101562 C 475.695312 81.101562 470.195312 86.628906 470.195312 93.402344 C 470.195312 100.207031 475.695312 105.730469 482.496094 105.730469 Z M 482.496094 90.449219 C 484.125 90.449219 485.476562 91.773438 485.476562 93.402344 C 485.476562 95.058594 484.125 96.382812 482.496094 96.382812 C 480.867188 96.382812 479.515625 95.058594 479.515625 93.402344 C 479.515625 91.773438 480.863281 90.449219 482.496094 90.449219 Z M 482.496094 90.449219 " fill-opacity="1" fill-rule="nonzero"/><path fill="#000000" d="M 527.796875 100.640625 C 531.796875 100.640625 535.027344 97.40625 535.027344 93.40625 C 535.027344 89.433594 531.796875 86.203125 527.796875 86.203125 C 523.824219 86.203125 520.589844 89.433594 520.589844 93.40625 C 520.589844 97.402344 523.824219 100.640625 527.796875 100.640625 Z M 527.796875 91.289062 C 528.96875 91.289062 529.933594 92.257812 529.933594 93.402344 C 529.933594 94.574219 528.96875 95.542969 527.796875 95.542969 C 526.625 95.542969 525.683594 94.574219 525.683594 93.402344 C 525.683594 92.257812 526.625 91.289062 527.796875 91.289062 Z M 527.796875 91.289062 " fill-opacity="1" fill-rule="nonzero"/><g clip-path="url(#8760c4e333)"><path fill="#000000" d="M 738.417969 663.605469 L 709.539062 663.605469 C 708.0625 656.730469 703.632812 650.949219 697.621094 647.664062 L 697.621094 81.078125 C 697.621094 46.878906 669.890625 19.140625 635.691406 19.140625 L 194.816406 19.140625 C 160.613281 19.140625 132.859375 46.878906 132.859375 81.078125 L 132.859375 833.507812 C 132.859375 867.710938 160.613281 895.445312 194.816406 895.445312 L 462.734375 895.445312 L 470.625 917.753906 C 486.464844 962.707031 529.148438 992.910156 576.792969 992.910156 L 682.980469 992.910156 C 705.492188 992.910156 720.414062 966.90625 736.226562 939.347656 C 737.625 936.929688 739.027344 934.511719 740.457031 932.066406 L 743.460938 926.867188 C 762.410156 894.324219 772.824219 876.417969 772.824219 835.667969 L 772.824219 698.039062 C 772.820312 679.042969 757.386719 663.605469 738.417969 663.605469 Z M 194.816406 868.957031 C 175.257812 868.957031 159.367188 853.039062 159.367188 833.503906 L 159.367188 81.078125 C 159.367188 61.546875 175.257812 45.628906 194.816406 45.628906 L 635.695312 45.628906 C 655.25 45.628906 671.140625 61.546875 671.140625 81.078125 L 671.140625 644.6875 L 643.460938 644.6875 C 641.117188 634.039062 631.644531 626.070312 620.3125 626.070312 L 571.496094 626.070312 C 569.460938 626.070312 567.472656 626.375 565.589844 626.988281 L 565.589844 534.332031 C 565.589844 509.296875 545.246094 488.949219 520.238281 488.949219 L 514.683594 488.949219 C 489.679688 488.949219 469.332031 509.296875 469.332031 534.332031 L 469.332031 664.984375 L 465.484375 655.8125 C 460.519531 643.96875 451.226562 634.75 439.332031 629.890625 C 427.441406 625.050781 414.378906 625.101562 402.535156 630.066406 L 396.753906 632.511719 C 372.308594 642.75 360.773438 670.996094 371.007812 695.441406 L 389.191406 733.285156 L 184.730469 733.285156 C 180.507812 733.285156 177.09375 736.722656 177.09375 740.929688 C 177.09375 745.152344 180.503906 748.570312 184.730469 748.570312 L 396.523438 748.570312 L 414.9375 786.898438 L 358.097656 786.898438 C 345.492188 786.898438 335.230469 797.164062 335.230469 809.796875 C 335.230469 822.402344 345.492188 832.667969 358.097656 832.667969 L 436.9375 832.667969 L 450.664062 861.242188 L 453.390625 868.957031 Z M 429.601562 817.386719 L 358.097656 817.386719 C 353.921875 817.386719 350.511719 813.972656 350.511719 809.796875 C 350.511719 805.59375 353.921875 802.179688 358.097656 802.179688 L 422.292969 802.179688 Z M 748.832031 834.726562 C 748.832031 880.1875 734.902344 900.640625 709.644531 937.746094 L 709.1875 938.382812 C 697.574219 955.445312 688.40625 968.894531 675.648438 968.894531 L 579.363281 968.894531 C 542.671875 968.894531 509.132812 945.921875 495.914062 911.691406 L 489.625 895.441406 L 479.390625 868.957031 L 472.640625 851.535156 L 463.550781 832.664062 L 456.191406 817.382812 L 448.855469 802.175781 L 441.496094 786.894531 L 423.03125 748.566406 L 415.671875 733.285156 L 394.304688 688.917969 C 388.597656 675.113281 395.144531 659.195312 408.921875 653.414062 C 415.617188 650.613281 423.03125 650.5625 429.753906 653.3125 C 436.5 656.0625 441.75 661.285156 444.550781 667.984375 L 470.800781 730.558594 C 471.234375 731.550781 471.769531 732.464844 472.40625 733.285156 C 475.054688 736.722656 479.433594 738.429688 483.914062 737.507812 C 486.765625 736.925781 489.160156 735.394531 490.8125 733.285156 C 492.390625 731.296875 493.308594 728.773438 493.308594 726.027344 L 493.308594 537.105469 C 493.308594 523.785156 504.132812 512.960938 517.449219 512.960938 C 530.742188 512.960938 541.5625 523.785156 541.5625 537.105469 L 541.5625 742.910156 C 541.5625 744.949219 542.074219 746.882812 542.988281 748.566406 C 545 752.332031 549 754.90625 553.582031 754.90625 C 558.164062 754.90625 562.136719 752.335938 564.148438 748.566406 C 565.066406 746.882812 565.574219 744.949219 565.574219 742.910156 L 565.574219 659.195312 C 565.574219 654.152344 569.671875 650.078125 574.71875 650.078125 L 614.824219 650.078125 C 617.679688 650.078125 619.996094 652.394531 619.996094 655.25 L 619.996094 742.910156 C 619.996094 744.949219 620.503906 746.882812 621.421875 748.566406 C 623.433594 752.332031 627.429688 754.90625 631.988281 754.90625 C 636.570312 754.90625 640.570312 752.335938 642.582031 748.566406 C 643.496094 746.882812 644.007812 744.949219 644.007812 742.910156 L 644.007812 668.675781 L 681.59375 668.675781 C 684.0625 668.675781 686.074219 670.691406 686.074219 673.160156 L 686.074219 742.917969 C 686.074219 749.386719 691.191406 754.65625 697.609375 754.886719 C 697.761719 754.914062 697.914062 754.914062 698.066406 754.914062 C 704.6875 754.914062 710.085938 749.539062 710.085938 742.917969 L 710.085938 687.625 L 735.628906 687.625 C 742.910156 687.625 748.816406 693.535156 748.816406 700.792969 L 748.816406 834.726562 Z M 748.832031 834.726562 " fill-opacity="1" fill-rule="nonzero"/></g><path fill="#000000" d="M 514.679688 394.335938 C 452.980469 394.335938 402.789062 444.53125 402.789062 506.238281 C 402.789062 545.613281 423.238281 580.300781 454.050781 600.265625 L 454.050781 581.421875 C 432.125 563.695312 418.070312 536.574219 418.070312 506.238281 C 418.070312 452.960938 461.410156 409.613281 514.683594 409.613281 C 567.960938 409.613281 611.300781 452.957031 611.300781 506.238281 C 611.300781 533.925781 599.613281 558.933594 580.871094 576.582031 L 580.871094 596.421875 C 608.578125 576.046875 626.582031 543.191406 626.582031 506.238281 C 626.574219 444.53125 576.386719 394.335938 514.679688 394.335938 Z M 514.679688 394.335938 " fill-opacity="1" fill-rule="nonzero"/><path fill="#000000" d="M 580.863281 534.332031 L 580.863281 561.761719 C 593.496094 546.734375 601.109375 527.355469 601.109375 506.238281 C 601.109375 458.589844 562.324219 419.800781 514.679688 419.800781 C 467.039062 419.800781 428.253906 458.589844 428.253906 506.238281 C 428.253906 530.308594 438.132812 552.082031 454.046875 567.792969 L 454.046875 543.421875 C 447.375 532.597656 443.53125 519.835938 443.53125 506.238281 C 443.53125 467.015625 475.460938 435.078125 514.679688 435.078125 C 553.921875 435.078125 585.828125 467.015625 585.828125 506.238281 C 585.828125 515.480469 584.042969 524.320312 580.808594 532.417969 C 580.863281 533.058594 580.863281 533.695312 580.863281 534.332031 Z M 580.863281 534.332031 " fill-opacity="1" fill-rule="nonzero"/></svg>