<svg xmlns="http://www.w3.org/2000/svg" xmlns:xlink="http://www.w3.org/1999/xlink" width="1248" zoomAndPan="magnify" viewBox="0 0 936 527.249983" height="703" preserveAspectRatio="xMidYMid meet" version="1.0"><path fill="#000000" d="M 530.140625 384.910156 L 402.757812 384.910156 L 339.066406 274.507812 L 402.757812 164.109375 L 530.140625 164.109375 L 593.832031 274.507812 Z M 405.71875 379.773438 L 527.171875 379.773438 L 587.902344 274.507812 L 527.171875 169.246094 L 405.71875 169.246094 L 344.988281 274.507812 Z M 405.71875 379.773438 " fill-opacity="1" fill-rule="nonzero"/><path fill="#000000" d="M 641.035156 278.992188 C 641.035156 278.992188 640.988281 278.992188 640.960938 278.992188 L 589.296875 276.644531 C 588.445312 276.605469 587.789062 275.886719 587.832031 275.039062 C 587.871094 274.191406 588.589844 273.527344 589.4375 273.570312 L 641.101562 275.917969 C 641.953125 275.957031 642.609375 276.675781 642.570312 277.523438 C 642.535156 278.351562 641.851562 278.992188 641.03125 278.992188 Z M 641.035156 278.992188 " fill-opacity="1" fill-rule="nonzero"/><path fill="#000000" d="M 640.535156 282.644531 C 643.410156 282.773438 645.847656 280.550781 645.976562 277.671875 C 646.105469 274.796875 643.882812 272.355469 641.007812 272.226562 C 638.132812 272.101562 635.695312 274.324219 635.566406 277.199219 C 635.441406 280.078125 637.664062 282.515625 640.535156 282.644531 Z M 640.535156 282.644531 " fill-opacity="1" fill-rule="nonzero"/><path fill="#000000" d="M 660.703125 290.128906 L 660.679688 290.128906 L 582.261719 288.867188 C 581.410156 288.851562 580.730469 288.152344 580.746094 287.300781 C 580.761719 286.457031 581.445312 285.785156 582.285156 285.785156 L 582.3125 285.785156 L 660.730469 287.046875 C 661.582031 287.0625 662.261719 287.761719 662.246094 288.613281 C 662.230469 289.457031 661.546875 290.128906 660.703125 290.128906 Z M 660.703125 290.128906 " fill-opacity="1" fill-rule="nonzero"/><path fill="#000000" d="M 664.960938 285.992188 C 665.132812 286.289062 665.269531 286.601562 665.378906 286.925781 C 665.488281 287.25 665.5625 287.582031 665.609375 287.921875 C 665.652344 288.261719 665.660156 288.601562 665.636719 288.945312 C 665.613281 289.285156 665.558594 289.621094 665.46875 289.953125 C 665.378906 290.28125 665.257812 290.601562 665.105469 290.90625 C 664.953125 291.214844 664.773438 291.503906 664.5625 291.773438 C 664.355469 292.042969 664.121094 292.292969 663.863281 292.515625 C 663.605469 292.742188 663.328125 292.941406 663.03125 293.109375 C 662.734375 293.28125 662.421875 293.417969 662.097656 293.527344 C 661.773438 293.636719 661.441406 293.714844 661.101562 293.757812 C 660.765625 293.800781 660.421875 293.8125 660.082031 293.789062 C 659.742188 293.765625 659.40625 293.707031 659.074219 293.617188 C 658.746094 293.527344 658.425781 293.40625 658.121094 293.253906 C 657.8125 293.101562 657.527344 292.921875 657.253906 292.710938 C 656.984375 292.503906 656.738281 292.269531 656.511719 292.011719 C 656.285156 291.753906 656.089844 291.476562 655.917969 291.175781 C 655.75 290.878906 655.609375 290.570312 655.5 290.246094 C 655.390625 289.921875 655.316406 289.589844 655.273438 289.25 C 655.230469 288.910156 655.21875 288.570312 655.242188 288.226562 C 655.265625 287.886719 655.324219 287.550781 655.414062 287.21875 C 655.5 286.890625 655.621094 286.570312 655.773438 286.265625 C 655.925781 285.957031 656.109375 285.667969 656.316406 285.398438 C 656.527344 285.125 656.761719 284.878906 657.019531 284.652344 C 657.277344 284.429688 657.554688 284.230469 657.851562 284.0625 C 658.148438 283.890625 658.457031 283.75 658.78125 283.644531 C 659.105469 283.535156 659.4375 283.457031 659.777344 283.414062 C 660.117188 283.371094 660.457031 283.359375 660.796875 283.382812 C 661.140625 283.40625 661.476562 283.464844 661.804688 283.554688 C 662.136719 283.644531 662.453125 283.765625 662.761719 283.917969 C 663.066406 284.070312 663.355469 284.25 663.625 284.460938 C 663.894531 284.667969 664.144531 284.902344 664.367188 285.160156 C 664.59375 285.417969 664.789062 285.695312 664.960938 285.992188 Z M 664.960938 285.992188 " fill-opacity="1" fill-rule="nonzero"/><path fill="#000000" d="M 639.449219 303.945312 C 639.449219 303.945312 639.417969 303.945312 639.402344 303.945312 L 577.523438 302.09375 C 576.671875 302.070312 576.003906 301.359375 576.027344 300.507812 C 576.054688 299.675781 576.738281 299.011719 577.570312 299.011719 C 577.585938 299.011719 577.601562 299.011719 577.617188 299.011719 L 639.496094 300.863281 C 640.347656 300.886719 641.015625 301.597656 640.988281 302.449219 C 640.960938 303.28125 640.28125 303.945312 639.449219 303.945312 Z M 639.449219 303.945312 " fill-opacity="1" fill-rule="nonzero"/><path fill="#000000" d="M 639.03125 307.605469 C 641.90625 307.695312 644.308594 305.429688 644.398438 302.550781 C 644.484375 299.675781 642.21875 297.269531 639.347656 297.183594 C 636.472656 297.097656 634.070312 299.363281 633.980469 302.238281 C 633.894531 305.117188 636.15625 307.519531 639.03125 307.605469 Z M 639.03125 307.605469 " fill-opacity="1" fill-rule="nonzero"/><path fill="#000000" d="M 643.289062 280.066406 C 642.820312 280.066406 642.355469 279.851562 642.050781 279.445312 C 641.542969 278.761719 641.679688 277.796875 642.363281 277.289062 L 678.984375 249.9375 C 679.667969 249.429688 680.632812 249.570312 681.140625 250.25 C 681.648438 250.933594 681.507812 251.902344 680.828125 252.410156 L 644.207031 279.757812 C 643.929688 279.964844 643.605469 280.066406 643.289062 280.066406 Z M 643.289062 280.066406 " fill-opacity="1" fill-rule="nonzero"/><path fill="#000000" d="M 682.8125 255.511719 C 685.117188 253.792969 685.59375 250.523438 683.871094 248.210938 C 682.152344 245.90625 678.886719 245.429688 676.574219 247.152344 C 674.269531 248.875 673.792969 252.140625 675.519531 254.453125 C 677.238281 256.761719 680.503906 257.238281 682.8125 255.511719 Z M 682.8125 255.511719 " fill-opacity="1" fill-rule="nonzero"/><path fill="#000000" d="M 662.730469 290.460938 C 662.269531 290.460938 661.8125 290.253906 661.511719 289.859375 C 660.992188 289.183594 661.113281 288.214844 661.789062 287.695312 L 675.167969 277.351562 C 675.84375 276.832031 676.8125 276.953125 677.332031 277.628906 C 677.847656 278.300781 677.726562 279.269531 677.054688 279.789062 L 663.671875 290.136719 C 663.390625 290.351562 663.0625 290.460938 662.730469 290.460938 Z M 662.730469 290.460938 " fill-opacity="1" fill-rule="nonzero"/><path fill="#000000" d="M 679.097656 282.855469 C 681.375 281.09375 681.792969 277.824219 680.035156 275.542969 C 678.273438 273.261719 675.003906 272.84375 672.726562 274.601562 C 670.445312 276.363281 670.03125 279.636719 671.785156 281.917969 C 673.542969 284.199219 676.816406 284.613281 679.097656 282.855469 Z M 679.097656 282.855469 " fill-opacity="1" fill-rule="nonzero"/><path fill="#000000" d="M 672.945312 319.582031 C 672.714844 319.582031 672.480469 319.53125 672.257812 319.417969 L 640.828125 303.6875 C 640.070312 303.308594 639.761719 302.382812 640.140625 301.617188 C 640.519531 300.855469 641.445312 300.546875 642.210938 300.929688 L 673.640625 316.660156 C 674.398438 317.039062 674.707031 317.964844 674.328125 318.730469 C 674.054688 319.269531 673.511719 319.582031 672.945312 319.582031 Z M 672.945312 319.582031 " fill-opacity="1" fill-rule="nonzero"/><path fill="#000000" d="M 670.386719 322.585938 C 672.957031 323.875 676.089844 322.828125 677.375 320.253906 C 678.664062 317.679688 677.617188 314.546875 675.046875 313.257812 C 672.476562 311.96875 669.34375 313.015625 668.054688 315.589844 C 666.765625 318.164062 667.8125 321.296875 670.386719 322.585938 Z M 670.386719 322.585938 " fill-opacity="1" fill-rule="nonzero"/><path fill="#000000" d="M 530.242188 169.789062 L 528.820312 169.789062 C 527.96875 169.789062 527.28125 169.101562 527.28125 168.25 C 527.28125 167.394531 527.96875 166.707031 528.820312 166.707031 L 528.96875 166.707031 L 585.023438 110.613281 C 585.621094 110.011719 586.597656 110.011719 587.199219 110.613281 C 587.800781 111.210938 587.800781 112.1875 587.199219 112.789062 L 530.246094 169.785156 Z M 530.242188 169.789062 " fill-opacity="1" fill-rule="nonzero"/><path fill="#000000" d="M 589.605469 115.574219 C 591.640625 113.539062 591.640625 110.238281 589.605469 108.195312 C 587.574219 106.164062 584.273438 106.164062 582.234375 108.195312 C 580.203125 110.230469 580.203125 113.535156 582.234375 115.574219 C 584.269531 117.609375 587.570312 117.609375 589.605469 115.574219 Z M 589.605469 115.574219 " fill-opacity="1" fill-rule="nonzero"/><path fill="#000000" d="M 537.46875 185.53125 C 537.074219 185.53125 536.679688 185.382812 536.382812 185.078125 C 535.78125 184.476562 535.78125 183.5 536.382812 182.898438 L 570.234375 149.019531 C 570.835938 148.421875 571.808594 148.421875 572.410156 149.019531 C 573.011719 149.621094 573.011719 150.597656 572.410156 151.199219 L 538.558594 185.078125 C 538.253906 185.382812 537.863281 185.53125 537.46875 185.53125 Z M 537.46875 185.53125 " fill-opacity="1" fill-rule="nonzero"/><path fill="#000000" d="M 574.824219 153.976562 C 576.855469 151.945312 576.855469 148.640625 574.824219 146.601562 C 572.789062 144.5625 569.488281 144.566406 567.453125 146.601562 C 565.414062 148.636719 565.417969 151.9375 567.453125 153.976562 C 569.484375 156.019531 572.785156 156.011719 574.824219 153.976562 Z M 574.824219 153.976562 " fill-opacity="1" fill-rule="nonzero"/><path fill="#000000" d="M 511.515625 167.425781 C 511.089844 167.425781 510.660156 167.246094 510.355469 166.902344 C 509.796875 166.261719 509.863281 165.289062 510.5 164.730469 L 516.753906 159.253906 L 544.671875 131.3125 C 545.273438 130.710938 546.246094 130.710938 546.847656 131.3125 C 547.449219 131.914062 547.449219 132.890625 546.847656 133.492188 L 518.820312 161.535156 L 512.527344 167.042969 C 512.234375 167.296875 511.875 167.421875 511.515625 167.421875 Z M 511.515625 167.425781 " fill-opacity="1" fill-rule="nonzero"/><path fill="#000000" d="M 549.261719 136.277344 C 551.292969 134.242188 551.292969 130.9375 549.261719 128.898438 C 547.226562 126.859375 543.925781 126.863281 541.890625 128.898438 C 539.851562 130.933594 539.855469 134.238281 541.890625 136.277344 C 543.921875 138.316406 547.222656 138.308594 549.261719 136.277344 Z M 549.261719 136.277344 " fill-opacity="1" fill-rule="nonzero"/><path fill="#000000" d="M 546.933594 131.503906 C 546.082031 131.503906 545.394531 130.816406 545.394531 129.960938 L 545.394531 104.972656 C 545.394531 104.117188 546.082031 103.429688 546.933594 103.429688 C 547.785156 103.429688 548.476562 104.117188 548.476562 104.972656 L 548.476562 129.960938 C 548.476562 130.816406 547.785156 131.503906 546.933594 131.503906 Z M 546.933594 131.503906 " fill-opacity="1" fill-rule="nonzero"/><path fill="#000000" d="M 552.144531 105.234375 C 552.144531 102.351562 549.808594 100.019531 546.933594 100.019531 C 544.058594 100.019531 541.726562 102.355469 541.726562 105.234375 C 541.726562 108.109375 544.058594 110.445312 546.933594 110.445312 C 549.808594 110.445312 552.144531 108.109375 552.144531 105.234375 Z M 552.144531 105.234375 " fill-opacity="1" fill-rule="nonzero"/><path fill="#000000" d="M 586.941406 109.425781 C 586.089844 109.425781 585.402344 108.738281 585.402344 107.882812 L 585.402344 89.753906 C 585.402344 88.902344 586.089844 88.214844 586.941406 88.214844 C 587.792969 88.214844 588.480469 88.902344 588.480469 89.753906 L 588.480469 107.882812 C 588.480469 108.738281 587.792969 109.425781 586.941406 109.425781 Z M 586.941406 109.425781 " fill-opacity="1" fill-rule="nonzero"/><path fill="#000000" d="M 592.152344 90.011719 C 592.152344 87.128906 589.816406 84.796875 586.941406 84.796875 C 584.066406 84.796875 581.730469 87.136719 581.730469 90.011719 C 581.730469 92.886719 584.066406 95.226562 586.941406 95.226562 C 589.816406 95.226562 592.152344 92.886719 592.152344 90.011719 Z M 592.152344 90.011719 " fill-opacity="1" fill-rule="nonzero"/><path fill="#000000" d="M 581.789062 159.484375 C 581.394531 159.484375 581 159.335938 580.699219 159.035156 L 572.835938 151.164062 C 572.234375 150.5625 572.234375 149.585938 572.835938 148.984375 C 573.4375 148.382812 574.414062 148.382812 575.011719 148.984375 L 582.875 156.855469 C 583.476562 157.457031 583.476562 158.433594 582.875 159.035156 C 582.574219 159.335938 582.183594 159.484375 581.789062 159.484375 Z M 581.789062 159.484375 " fill-opacity="1" fill-rule="nonzero"/><path fill="#000000" d="M 577.917969 161.449219 C 579.949219 163.480469 583.25 163.480469 585.289062 161.449219 C 587.320312 159.414062 587.320312 156.109375 585.289062 154.070312 C 583.257812 152.035156 579.957031 152.035156 577.917969 154.070312 C 575.886719 156.105469 575.886719 159.410156 577.917969 161.449219 Z M 577.917969 161.449219 " fill-opacity="1" fill-rule="nonzero"/><path fill="#000000" d="M 454.113281 168.214844 C 453.261719 168.214844 452.574219 167.523438 452.574219 166.671875 L 452.574219 103.929688 C 452.574219 103.074219 453.261719 102.386719 454.113281 102.386719 C 454.964844 102.386719 455.652344 103.074219 455.652344 103.929688 L 455.652344 166.671875 C 455.652344 167.523438 454.964844 168.214844 454.113281 168.214844 Z M 454.113281 168.214844 " fill-opacity="1" fill-rule="nonzero"/><path fill="#000000" d="M 459.324219 104.195312 C 459.324219 101.3125 456.988281 98.980469 454.113281 98.980469 C 451.238281 98.980469 448.902344 101.320312 448.902344 104.195312 C 448.902344 107.070312 451.238281 109.410156 454.113281 109.410156 C 456.988281 109.410156 459.324219 107.070312 459.324219 104.195312 Z M 459.324219 104.195312 " fill-opacity="1" fill-rule="nonzero"/><path fill="#000000" d="M 439.960938 167.425781 C 439.109375 167.425781 438.421875 166.738281 438.421875 165.886719 L 438.421875 128.339844 C 438.421875 127.488281 439.109375 126.796875 439.960938 126.796875 C 440.8125 126.796875 441.5 127.488281 441.5 128.339844 L 441.5 165.886719 C 441.5 166.738281 440.8125 167.425781 439.960938 167.425781 Z M 439.960938 167.425781 " fill-opacity="1" fill-rule="nonzero"/><path fill="#000000" d="M 445.171875 128.601562 C 445.171875 125.71875 442.835938 123.386719 439.960938 123.386719 C 437.085938 123.386719 434.75 125.726562 434.75 128.601562 C 434.75 131.476562 437.085938 133.816406 439.960938 133.816406 C 442.835938 133.816406 445.171875 131.476562 445.171875 128.601562 Z M 445.171875 128.601562 " fill-opacity="1" fill-rule="nonzero"/><path fill="#000000" d="M 465.910156 166.640625 C 465.058594 166.640625 464.371094 165.953125 464.371094 165.101562 L 464.371094 94.265625 L 484.289062 74.328125 C 484.890625 73.726562 485.867188 73.726562 486.46875 74.328125 C 487.066406 74.929688 487.066406 75.90625 486.46875 76.507812 L 467.449219 95.539062 L 467.449219 165.101562 C 467.449219 165.953125 466.761719 166.640625 465.910156 166.640625 Z M 465.910156 166.640625 " fill-opacity="1" fill-rule="nonzero"/><path fill="#000000" d="M 488.878906 79.289062 C 490.914062 77.257812 490.914062 73.953125 488.878906 71.914062 C 486.847656 69.878906 483.546875 69.878906 481.507812 71.914062 C 479.476562 73.949219 479.476562 77.25 481.507812 79.289062 C 483.542969 81.324219 486.84375 81.324219 488.878906 79.289062 Z M 488.878906 79.289062 " fill-opacity="1" fill-rule="nonzero"/><path fill="#000000" d="M 453.589844 101.554688 C 453.195312 101.554688 452.800781 101.40625 452.5 101.101562 L 436.964844 85.554688 C 436.363281 84.953125 436.363281 83.976562 436.964844 83.375 C 437.566406 82.773438 438.539062 82.773438 439.140625 83.375 L 454.679688 98.925781 C 455.277344 99.527344 455.277344 100.5 454.679688 101.101562 C 454.375 101.40625 453.984375 101.554688 453.589844 101.554688 Z M 453.589844 101.554688 " fill-opacity="1" fill-rule="nonzero"/><path fill="#000000" d="M 441.921875 80.960938 C 439.890625 78.925781 436.589844 78.925781 434.550781 80.960938 C 432.519531 82.996094 432.519531 86.296875 434.550781 88.335938 C 436.585938 90.371094 439.882812 90.371094 441.921875 88.335938 C 443.957031 86.304688 443.957031 83 441.921875 80.960938 Z M 441.921875 80.960938 " fill-opacity="1" fill-rule="nonzero"/><path fill="#000000" d="M 438.148438 127.503906 C 437.753906 127.503906 437.359375 127.351562 437.0625 127.050781 L 426.921875 116.90625 C 426.324219 116.304688 426.324219 115.328125 426.921875 114.726562 C 427.523438 114.125 428.5 114.125 429.101562 114.726562 L 439.238281 124.871094 C 439.839844 125.472656 439.839844 126.449219 439.238281 127.050781 C 438.933594 127.351562 438.542969 127.503906 438.148438 127.503906 Z M 438.148438 127.503906 " fill-opacity="1" fill-rule="nonzero"/><path fill="#000000" d="M 431.878906 112.3125 C 429.84375 110.277344 426.542969 110.277344 424.507812 112.3125 C 422.472656 114.347656 422.472656 117.648438 424.507812 119.6875 C 426.539062 121.722656 429.839844 121.722656 431.878906 119.6875 C 433.910156 117.65625 433.910156 114.351562 431.878906 112.3125 Z M 431.878906 112.3125 " fill-opacity="1" fill-rule="nonzero"/><path fill="#000000" d="M 340.09375 276.816406 L 275.832031 276.816406 C 274.980469 276.816406 274.292969 276.128906 274.292969 275.273438 C 274.292969 274.421875 274.980469 273.734375 275.832031 273.734375 L 340.097656 273.734375 C 340.949219 273.734375 341.636719 274.421875 341.636719 275.273438 C 341.636719 276.128906 340.949219 276.816406 340.097656 276.816406 Z M 340.09375 276.816406 " fill-opacity="1" fill-rule="nonzero"/><path fill="#000000" d="M 276.089844 270.058594 C 273.207031 270.058594 270.878906 272.398438 270.878906 275.273438 C 270.878906 278.152344 273.214844 280.488281 276.089844 280.488281 C 278.960938 280.488281 281.296875 278.152344 281.296875 275.273438 C 281.296875 272.398438 278.960938 270.058594 276.089844 270.058594 Z M 276.089844 270.058594 " fill-opacity="1" fill-rule="nonzero"/><path fill="#000000" d="M 347.171875 290.191406 L 290.179688 290.191406 C 289.328125 290.191406 288.636719 289.503906 288.636719 288.652344 C 288.636719 287.796875 289.328125 287.109375 290.179688 287.109375 L 347.171875 287.109375 C 348.023438 287.109375 348.710938 287.796875 348.710938 288.652344 C 348.710938 289.503906 348.023438 290.191406 347.171875 290.191406 Z M 347.171875 290.191406 " fill-opacity="1" fill-rule="nonzero"/><path fill="#000000" d="M 290.441406 283.4375 C 287.5625 283.4375 285.230469 285.773438 285.230469 288.652344 C 285.230469 291.527344 287.566406 293.867188 290.441406 293.867188 C 293.316406 293.867188 295.648438 291.527344 295.648438 288.652344 C 295.648438 285.773438 293.316406 283.4375 290.441406 283.4375 Z M 290.441406 283.4375 " fill-opacity="1" fill-rule="nonzero"/><path fill="#000000" d="M 347.957031 264.222656 L 286.816406 264.222656 C 285.964844 264.222656 285.277344 263.535156 285.277344 262.683594 C 285.277344 261.832031 285.964844 261.140625 286.816406 261.140625 L 347.960938 261.140625 C 348.8125 261.140625 349.5 261.832031 349.5 262.683594 C 349.5 263.535156 348.8125 264.222656 347.960938 264.222656 Z M 347.957031 264.222656 " fill-opacity="1" fill-rule="nonzero"/><path fill="#000000" d="M 287.074219 257.46875 C 284.191406 257.46875 281.863281 259.804688 281.863281 262.683594 C 281.863281 265.558594 284.199219 267.898438 287.074219 267.898438 C 289.949219 267.898438 292.28125 265.558594 292.28125 262.683594 C 292.28125 259.804688 289.949219 257.46875 287.074219 257.46875 Z M 287.074219 257.46875 " fill-opacity="1" fill-rule="nonzero"/><path fill="#000000" d="M 347.703125 394.324219 C 347.308594 394.324219 346.914062 394.175781 346.617188 393.875 C 346.015625 393.273438 346.015625 392.296875 346.617188 391.695312 L 386.1875 352.09375 C 386.789062 351.492188 387.761719 351.492188 388.363281 352.09375 C 388.964844 352.695312 388.964844 353.671875 388.363281 354.273438 L 348.792969 393.875 C 348.488281 394.175781 348.101562 394.324219 347.703125 394.324219 Z M 347.703125 394.324219 " fill-opacity="1" fill-rule="nonzero"/><path fill="#000000" d="M 344.203125 388.914062 C 342.171875 390.949219 342.171875 394.253906 344.203125 396.292969 C 346.238281 398.328125 349.539062 398.328125 351.574219 396.292969 C 353.613281 394.257812 353.609375 390.957031 351.574219 388.914062 C 349.542969 386.882812 346.242188 386.882812 344.203125 388.914062 Z M 344.203125 388.914062 " fill-opacity="1" fill-rule="nonzero"/><path fill="#000000" d="M 347.128906 413 C 346.734375 413 346.339844 412.847656 346.042969 412.546875 C 345.441406 411.945312 345.441406 410.96875 346.042969 410.367188 L 391.691406 364.683594 C 392.289062 364.082031 393.265625 364.082031 393.867188 364.683594 C 394.46875 365.285156 394.46875 366.261719 393.867188 366.863281 L 348.21875 412.546875 C 347.914062 412.847656 347.523438 413 347.128906 413 Z M 347.128906 413 " fill-opacity="1" fill-rule="nonzero"/><path fill="#000000" d="M 343.632812 407.585938 C 341.601562 409.617188 341.601562 412.921875 343.632812 414.960938 C 345.667969 417 348.96875 416.996094 351.003906 414.960938 C 353.042969 412.925781 353.039062 409.625 351.003906 407.585938 C 348.972656 405.542969 345.671875 405.550781 343.632812 407.585938 Z M 343.632812 407.585938 " fill-opacity="1" fill-rule="nonzero"/><path fill="#000000" d="M 378.558594 398.070312 C 378.164062 398.070312 377.769531 397.921875 377.472656 397.617188 C 376.871094 397.015625 376.871094 396.042969 377.472656 395.441406 L 397.984375 374.914062 C 398.582031 374.3125 399.558594 374.3125 400.160156 374.914062 C 400.761719 375.511719 400.761719 376.488281 400.160156 377.089844 L 379.648438 397.617188 C 379.34375 397.921875 378.953125 398.070312 378.558594 398.070312 Z M 378.558594 398.070312 " fill-opacity="1" fill-rule="nonzero"/><path fill="#000000" d="M 375.058594 392.660156 C 373.027344 394.695312 373.027344 398 375.058594 400.039062 C 377.089844 402.070312 380.390625 402.070312 382.429688 400.039062 C 384.46875 398.003906 384.460938 394.699219 382.429688 392.660156 C 380.398438 390.625 377.097656 390.625 375.058594 392.660156 Z M 375.058594 392.660156 " fill-opacity="1" fill-rule="nonzero"/><path fill="#000000" d="M 487.140625 432.894531 C 486.289062 432.894531 485.601562 432.207031 485.601562 431.351562 L 485.601562 385.449219 C 485.601562 384.597656 486.289062 383.90625 487.140625 383.90625 C 487.992188 383.90625 488.679688 384.597656 488.679688 385.449219 L 488.679688 431.351562 C 488.679688 432.207031 487.992188 432.894531 487.140625 432.894531 Z M 487.140625 432.894531 " fill-opacity="1" fill-rule="nonzero"/><path fill="#000000" d="M 481.929688 431.089844 C 481.929688 433.972656 484.265625 436.304688 487.140625 436.304688 C 490.015625 436.304688 492.351562 433.96875 492.351562 431.089844 C 492.351562 428.214844 490.015625 425.878906 487.140625 425.878906 C 484.265625 425.878906 481.929688 428.214844 481.929688 431.089844 Z M 481.929688 431.089844 " fill-opacity="1" fill-rule="nonzero"/><path fill="#000000" d="M 495.003906 420.597656 C 494.152344 420.597656 493.464844 419.90625 493.464844 419.054688 L 493.464844 385.449219 C 493.464844 384.597656 494.152344 383.90625 495.003906 383.90625 C 495.855469 383.90625 496.542969 384.597656 496.542969 385.449219 L 496.542969 419.054688 C 496.542969 419.90625 495.855469 420.597656 495.003906 420.597656 Z M 495.003906 420.597656 " fill-opacity="1" fill-rule="nonzero"/><path fill="#000000" d="M 497.742188 414.378906 C 498.035156 414.558594 498.304688 414.765625 498.554688 415 C 498.804688 415.230469 499.03125 415.488281 499.230469 415.765625 C 499.429688 416.042969 499.601562 416.339844 499.742188 416.648438 C 499.886719 416.960938 499.996094 417.28125 500.074219 417.617188 C 500.152344 417.949219 500.199219 418.289062 500.210938 418.628906 C 500.222656 418.972656 500.203125 419.3125 500.148438 419.648438 C 500.089844 419.988281 500.003906 420.316406 499.886719 420.636719 C 499.765625 420.957031 499.617188 421.265625 499.4375 421.554688 C 499.253906 421.847656 499.050781 422.117188 498.816406 422.367188 C 498.582031 422.617188 498.328125 422.84375 498.050781 423.042969 C 497.773438 423.246094 497.476562 423.414062 497.167969 423.558594 C 496.855469 423.699219 496.535156 423.808594 496.199219 423.890625 C 495.867188 423.96875 495.53125 424.011719 495.1875 424.023438 C 494.847656 424.035156 494.507812 424.015625 494.167969 423.960938 C 493.832031 423.90625 493.503906 423.820312 493.183594 423.699219 C 492.863281 423.578125 492.554688 423.429688 492.265625 423.25 C 491.972656 423.070312 491.703125 422.863281 491.453125 422.628906 C 491.203125 422.394531 490.976562 422.140625 490.777344 421.863281 C 490.578125 421.585938 490.40625 421.289062 490.265625 420.980469 C 490.121094 420.667969 490.011719 420.34375 489.933594 420.011719 C 489.855469 419.679688 489.808594 419.339844 489.796875 419 C 489.785156 418.65625 489.804688 418.316406 489.859375 417.980469 C 489.914062 417.640625 490.003906 417.3125 490.121094 416.992188 C 490.242188 416.667969 490.390625 416.363281 490.570312 416.074219 C 490.75 415.78125 490.957031 415.511719 491.191406 415.261719 C 491.425781 415.007812 491.679688 414.785156 491.957031 414.585938 C 492.234375 414.382812 492.53125 414.210938 492.839844 414.070312 C 493.152344 413.929688 493.472656 413.816406 493.808594 413.738281 C 494.140625 413.660156 494.476562 413.617188 494.820312 413.601562 C 495.160156 413.589844 495.5 413.613281 495.839844 413.667969 C 496.175781 413.722656 496.503906 413.808594 496.824219 413.929688 C 497.144531 414.050781 497.453125 414.199219 497.742188 414.378906 Z M 497.742188 414.378906 " fill-opacity="1" fill-rule="nonzero"/><path fill="#000000" d="M 504.4375 451.933594 C 503.585938 451.933594 502.898438 451.242188 502.898438 450.390625 L 502.898438 384.65625 C 502.898438 383.804688 503.585938 383.117188 504.4375 383.117188 C 505.289062 383.117188 505.976562 383.804688 505.976562 384.65625 L 505.976562 450.390625 C 505.976562 451.242188 505.289062 451.933594 504.4375 451.933594 Z M 504.4375 451.933594 " fill-opacity="1" fill-rule="nonzero"/><path fill="#000000" d="M 509.257812 448.136719 C 509.386719 448.449219 509.484375 448.777344 509.554688 449.113281 C 509.621094 449.449219 509.652344 449.789062 509.652344 450.128906 C 509.652344 450.472656 509.621094 450.8125 509.554688 451.148438 C 509.484375 451.484375 509.386719 451.808594 509.257812 452.125 C 509.125 452.441406 508.964844 452.742188 508.773438 453.027344 C 508.585938 453.3125 508.367188 453.574219 508.128906 453.816406 C 507.886719 454.058594 507.621094 454.273438 507.335938 454.464844 C 507.054688 454.65625 506.753906 454.816406 506.4375 454.949219 C 506.121094 455.078125 505.792969 455.175781 505.460938 455.242188 C 505.125 455.3125 504.785156 455.34375 504.441406 455.34375 C 504.101562 455.34375 503.761719 455.3125 503.425781 455.242188 C 503.089844 455.175781 502.765625 455.078125 502.449219 454.949219 C 502.132812 454.816406 501.832031 454.65625 501.546875 454.464844 C 501.265625 454.273438 501 454.058594 500.757812 453.816406 C 500.515625 453.574219 500.300781 453.3125 500.109375 453.027344 C 499.921875 452.742188 499.761719 452.441406 499.628906 452.125 C 499.5 451.808594 499.398438 451.484375 499.332031 451.148438 C 499.265625 450.8125 499.234375 450.472656 499.234375 450.128906 C 499.234375 449.789062 499.265625 449.449219 499.332031 449.113281 C 499.398438 448.777344 499.5 448.449219 499.628906 448.136719 C 499.761719 447.820312 499.921875 447.519531 500.109375 447.234375 C 500.300781 446.949219 500.515625 446.683594 500.757812 446.441406 C 501 446.199219 501.265625 445.984375 501.546875 445.792969 C 501.832031 445.605469 502.132812 445.445312 502.449219 445.3125 C 502.765625 445.183594 503.089844 445.082031 503.425781 445.015625 C 503.761719 444.949219 504.101562 444.914062 504.441406 444.914062 C 504.785156 444.917969 505.125 444.949219 505.460938 445.015625 C 505.792969 445.082031 506.121094 445.183594 506.4375 445.3125 C 506.753906 445.445312 507.054688 445.605469 507.335938 445.792969 C 507.621094 445.984375 507.886719 446.199219 508.128906 446.441406 C 508.367188 446.683594 508.585938 446.949219 508.773438 447.234375 C 508.964844 447.519531 509.125 447.820312 509.257812 448.136719 Z M 509.257812 448.136719 " fill-opacity="1" fill-rule="nonzero"/><path fill="#000000" d="M 603.496094 409.78125 C 603.101562 409.78125 602.707031 409.632812 602.40625 409.332031 L 545.816406 352.695312 C 545.214844 352.09375 545.214844 351.117188 545.816406 350.515625 C 546.417969 349.914062 547.390625 349.914062 547.992188 350.515625 L 604.585938 407.152344 C 605.183594 407.753906 605.183594 408.730469 604.585938 409.332031 C 604.28125 409.632812 603.890625 409.78125 603.496094 409.78125 Z M 603.496094 409.78125 " fill-opacity="1" fill-rule="nonzero"/><path fill="#000000" d="M 599.625 411.746094 C 601.660156 413.78125 604.960938 413.78125 606.996094 411.746094 C 609.035156 409.710938 609.03125 406.40625 606.996094 404.367188 C 604.964844 402.328125 601.664062 402.332031 599.625 404.367188 C 597.589844 406.402344 597.59375 409.707031 599.625 411.746094 Z M 599.625 411.746094 " fill-opacity="1" fill-rule="nonzero"/><path fill="#000000" d="M 600.113281 395.382812 C 599.71875 395.382812 599.324219 395.234375 599.027344 394.929688 L 550.535156 346.402344 C 549.933594 345.800781 549.933594 344.824219 550.535156 344.222656 C 551.132812 343.621094 552.109375 343.621094 552.710938 344.222656 L 601.203125 392.753906 C 601.800781 393.355469 601.800781 394.332031 601.203125 394.929688 C 600.898438 395.234375 600.507812 395.382812 600.113281 395.382812 Z M 600.113281 395.382812 " fill-opacity="1" fill-rule="nonzero"/><path fill="#000000" d="M 596.25 397.347656 C 598.28125 399.378906 601.582031 399.378906 603.621094 397.347656 C 605.65625 395.3125 605.652344 392.007812 603.621094 389.96875 C 601.585938 387.929688 598.285156 387.933594 596.25 389.96875 C 594.210938 392.003906 594.214844 395.304688 596.25 397.347656 Z M 596.25 397.347656 " fill-opacity="1" fill-rule="nonzero"/><path fill="#000000" d="M 590.714844 368.664062 C 590.320312 368.664062 589.925781 368.515625 589.625 368.214844 L 555.25 333.8125 C 554.648438 333.210938 554.648438 332.234375 555.25 331.632812 C 555.851562 331.03125 556.828125 331.03125 557.425781 331.632812 L 591.804688 366.035156 C 592.402344 366.636719 592.402344 367.613281 591.804688 368.214844 C 591.5 368.515625 591.109375 368.664062 590.714844 368.664062 Z M 590.714844 368.664062 " fill-opacity="1" fill-rule="nonzero"/><path fill="#000000" d="M 586.84375 370.628906 C 588.878906 372.664062 592.179688 372.664062 594.214844 370.628906 C 596.253906 368.59375 596.25 365.289062 594.214844 363.25 C 592.183594 361.210938 588.882812 361.21875 586.84375 363.25 C 584.808594 365.285156 584.8125 368.589844 586.84375 370.628906 Z M 586.84375 370.628906 " fill-opacity="1" fill-rule="nonzero"/><path fill="#000000" d="M 369.976562 221.730469 C 369.582031 221.730469 369.1875 221.582031 368.890625 221.277344 L 317.335938 169.6875 C 316.738281 169.085938 316.738281 168.109375 317.335938 167.507812 C 317.9375 166.910156 318.914062 166.910156 319.515625 167.507812 L 371.066406 219.101562 C 371.667969 219.703125 371.667969 220.679688 371.066406 221.277344 C 370.761719 221.582031 370.371094 221.730469 369.976562 221.730469 Z M 369.976562 221.730469 " fill-opacity="1" fill-rule="nonzero"/><path fill="#000000" d="M 322.296875 165.09375 C 320.261719 163.0625 316.960938 163.0625 314.925781 165.09375 C 312.890625 167.128906 312.890625 170.433594 314.925781 172.472656 C 316.957031 174.507812 320.257812 174.507812 322.296875 172.472656 C 324.328125 170.4375 324.328125 167.132812 322.296875 165.09375 Z M 322.296875 165.09375 " fill-opacity="1" fill-rule="nonzero"/><path fill="#000000" d="M 376.265625 214.648438 C 375.871094 214.648438 375.476562 214.496094 375.175781 214.195312 L 325.179688 164.160156 C 324.582031 163.558594 324.582031 162.582031 325.179688 161.980469 C 325.78125 161.382812 326.757812 161.382812 327.355469 161.980469 L 377.351562 212.015625 C 377.953125 212.617188 377.953125 213.59375 377.351562 214.195312 C 377.050781 214.496094 376.660156 214.648438 376.265625 214.648438 Z M 376.265625 214.648438 " fill-opacity="1" fill-rule="nonzero"/><path fill="#000000" d="M 330.140625 159.566406 C 328.105469 157.535156 324.804688 157.535156 322.769531 159.566406 C 320.734375 161.601562 320.734375 164.90625 322.769531 166.945312 C 324.800781 168.980469 328.101562 168.980469 330.140625 166.945312 C 332.171875 164.910156 332.171875 161.605469 330.140625 159.566406 Z M 330.140625 159.566406 " fill-opacity="1" fill-rule="nonzero"/><path fill="#000000" d="M 382.558594 208.347656 C 382.164062 208.347656 381.769531 208.199219 381.46875 207.898438 L 348.488281 174.890625 C 347.890625 174.289062 347.890625 173.3125 348.488281 172.714844 C 349.089844 172.113281 350.066406 172.113281 350.667969 172.714844 L 383.648438 205.71875 C 384.246094 206.320312 384.246094 207.296875 383.648438 207.898438 C 383.34375 208.199219 382.953125 208.347656 382.558594 208.347656 Z M 382.558594 208.347656 " fill-opacity="1" fill-rule="nonzero"/><path fill="#000000" d="M 353.449219 170.304688 C 351.417969 168.269531 348.117188 168.269531 346.078125 170.304688 C 344.039062 172.339844 344.046875 175.640625 346.078125 177.679688 C 348.109375 179.714844 351.410156 179.714844 353.449219 177.679688 C 355.488281 175.644531 355.480469 172.34375 353.449219 170.304688 Z M 353.449219 170.304688 " fill-opacity="1" fill-rule="nonzero"/><path fill="#000000" d="M 348.417969 172.675781 C 348.1875 172.675781 347.953125 172.625 347.730469 172.511719 C 346.972656 172.132812 346.664062 171.207031 347.042969 170.449219 L 354.789062 154.945312 C 355.167969 154.183594 356.09375 153.875 356.851562 154.253906 C 357.613281 154.636719 357.917969 155.5625 357.539062 156.320312 L 349.792969 171.824219 C 349.523438 172.363281 348.984375 172.675781 348.414062 172.675781 Z M 348.417969 172.675781 " fill-opacity="1" fill-rule="nonzero"/><path fill="#000000" d="M 360.707031 158.195312 C 361.996094 155.621094 360.949219 152.488281 358.375 151.199219 C 355.804688 149.910156 352.671875 150.957031 351.386719 153.53125 C 350.097656 156.105469 351.144531 159.238281 353.714844 160.527344 C 356.289062 161.816406 359.417969 160.769531 360.707031 158.195312 Z M 360.707031 158.195312 " fill-opacity="1" fill-rule="nonzero"/><path fill="#000000" d="M 325.371094 161.164062 C 325.144531 161.164062 324.914062 161.113281 324.699219 161.011719 C 323.933594 160.636719 323.617188 159.714844 323.988281 158.949219 L 332.304688 141.890625 C 332.679688 141.125 333.597656 140.808594 334.363281 141.183594 C 335.128906 141.558594 335.445312 142.476562 335.074219 143.242188 L 326.757812 160.300781 C 326.488281 160.851562 325.941406 161.171875 325.371094 161.171875 Z M 325.371094 161.164062 " fill-opacity="1" fill-rule="nonzero"/><path fill="#000000" d="M 338.253906 145.085938 C 339.515625 142.496094 338.445312 139.375 335.859375 138.113281 C 333.269531 136.851562 330.148438 137.925781 328.890625 140.515625 C 327.628906 143.101562 328.703125 146.226562 331.289062 147.484375 C 333.875 148.742188 336.996094 147.675781 338.253906 145.085938 Z M 338.253906 145.085938 " fill-opacity="1" fill-rule="nonzero"/><path fill="#000000" d="M 313.871094 170.03125 C 313.816406 170.03125 313.753906 170.03125 313.699219 170.019531 L 290.832031 167.433594 C 289.984375 167.335938 289.378906 166.574219 289.476562 165.726562 C 289.574219 164.878906 290.332031 164.273438 291.179688 164.371094 L 314.046875 166.960938 C 314.894531 167.058594 315.5 167.816406 315.402344 168.664062 C 315.316406 169.449219 314.648438 170.03125 313.871094 170.03125 Z M 313.871094 170.03125 " fill-opacity="1" fill-rule="nonzero"/><path fill="#000000" d="M 291.851562 160.742188 C 288.992188 160.421875 286.410156 162.476562 286.085938 165.339844 C 285.765625 168.203125 287.816406 170.785156 290.679688 171.109375 C 293.539062 171.433594 296.121094 169.378906 296.445312 166.511719 C 296.769531 163.644531 294.714844 161.066406 291.855469 160.742188 Z M 291.851562 160.742188 " fill-opacity="1" fill-rule="nonzero"/><path fill="#000000" d="M 284.46875 264.488281 C 284.066406 264.488281 283.652344 264.328125 283.351562 264.003906 C 282.765625 263.386719 282.792969 262.410156 283.40625 261.824219 L 300.261719 245.824219 C 300.875 245.238281 301.851562 245.265625 302.4375 245.878906 C 303.019531 246.496094 302.996094 247.472656 302.378906 248.058594 L 285.527344 264.058594 C 285.230469 264.34375 284.851562 264.480469 284.46875 264.480469 Z M 284.46875 264.488281 " fill-opacity="1" fill-rule="nonzero"/><path fill="#000000" d="M 304.726562 250.902344 C 306.816406 248.921875 306.902344 245.625 304.921875 243.53125 C 302.9375 241.441406 299.644531 241.355469 297.554688 243.335938 C 295.464844 245.320312 295.378906 248.617188 297.359375 250.707031 C 299.339844 252.800781 302.636719 252.886719 304.726562 250.902344 Z M 304.726562 250.902344 " fill-opacity="1" fill-rule="nonzero"/><path fill="#000000" d="M 256.167969 288.089844 C 255.652344 288.089844 255.148438 287.835938 254.859375 287.367188 C 254.40625 286.644531 254.625 285.691406 255.34375 285.246094 L 272.113281 274.753906 C 272.832031 274.304688 273.789062 274.523438 274.234375 275.242188 C 274.683594 275.960938 274.464844 276.917969 273.746094 277.363281 L 256.976562 287.855469 C 256.726562 288.015625 256.445312 288.089844 256.160156 288.089844 Z M 256.167969 288.089844 " fill-opacity="1" fill-rule="nonzero"/><path fill="#000000" d="M 253.625 281.988281 C 251.1875 283.515625 250.441406 286.730469 251.96875 289.175781 C 253.492188 291.621094 256.707031 292.359375 259.148438 290.835938 C 261.585938 289.308594 262.332031 286.09375 260.808594 283.648438 C 259.28125 281.203125 256.070312 280.460938 253.625 281.988281 Z M 253.625 281.988281 " fill-opacity="1" fill-rule="nonzero"/><path fill="#000000" d="M 302.828125 303.167969 C 302.457031 303.167969 302.082031 303.035156 301.789062 302.761719 L 287.09375 289.320312 C 286.46875 288.742188 286.421875 287.769531 286.996094 287.140625 C 287.570312 286.515625 288.546875 286.46875 289.171875 287.042969 L 303.867188 300.488281 C 304.496094 301.0625 304.539062 302.039062 303.964844 302.664062 C 303.664062 303 303.246094 303.167969 302.832031 303.167969 Z M 302.828125 303.167969 " fill-opacity="1" fill-rule="nonzero"/><path fill="#000000" d="M 299.113281 305.300781 C 301.238281 307.242188 304.535156 307.097656 306.476562 304.972656 C 308.417969 302.84375 308.265625 299.546875 306.148438 297.605469 C 304.023438 295.664062 300.726562 295.8125 298.785156 297.933594 C 296.847656 300.054688 296.996094 303.359375 299.113281 305.300781 Z M 299.113281 305.300781 " fill-opacity="1" fill-rule="nonzero"/><path fill="#000000" d="M 346.800781 395.164062 C 346.097656 395.164062 345.460938 394.675781 345.300781 393.960938 L 341.671875 377.808594 C 341.488281 376.976562 342.007812 376.15625 342.839844 375.96875 C 343.671875 375.785156 344.492188 376.304688 344.679688 377.136719 L 348.308594 393.289062 C 348.496094 394.121094 347.976562 394.941406 347.144531 395.125 C 347.03125 395.152344 346.917969 395.164062 346.804688 395.164062 Z M 346.800781 395.164062 " fill-opacity="1" fill-rule="nonzero"/><path fill="#000000" d="M 348.308594 376.582031 C 347.679688 373.773438 344.890625 372.003906 342.085938 372.636719 C 339.277344 373.269531 337.511719 376.058594 338.140625 378.867188 C 338.773438 381.679688 341.558594 383.445312 344.367188 382.8125 C 347.175781 382.179688 348.941406 379.390625 348.308594 376.582031 Z M 348.308594 376.582031 " fill-opacity="1" fill-rule="nonzero"/><path fill="#000000" d="M 357.890625 420.878906 C 357.6875 420.878906 357.484375 420.835938 357.28125 420.753906 L 345.316406 415.625 C 344.539062 415.289062 344.171875 414.378906 344.507812 413.597656 C 344.839844 412.820312 345.742188 412.453125 346.53125 412.789062 L 358.496094 417.917969 C 359.273438 418.253906 359.640625 419.164062 359.304688 419.945312 C 359.054688 420.53125 358.488281 420.878906 357.890625 420.878906 Z M 357.890625 420.878906 " fill-opacity="1" fill-rule="nonzero"/><path fill="#000000" d="M 355.597656 424.027344 C 358.242188 425.164062 361.308594 423.933594 362.441406 421.289062 C 363.578125 418.644531 362.347656 415.578125 359.707031 414.441406 C 357.0625 413.308594 353.996094 414.535156 352.863281 417.179688 C 351.730469 419.824219 352.957031 422.890625 355.597656 424.027344 Z M 355.597656 424.027344 " fill-opacity="1" fill-rule="nonzero"/><path fill="#000000" d="M 392.511719 413.097656 C 392.117188 413.097656 391.722656 412.945312 391.421875 412.644531 L 376.050781 397.257812 C 375.449219 396.65625 375.449219 395.679688 376.050781 395.082031 C 376.648438 394.480469 377.625 394.480469 378.226562 395.082031 L 393.601562 410.464844 C 394.199219 411.066406 394.199219 412.042969 393.601562 412.644531 C 393.296875 412.945312 392.90625 413.097656 392.511719 413.097656 Z M 392.511719 413.097656 " fill-opacity="1" fill-rule="nonzero"/><path fill="#000000" d="M 388.640625 415.058594 C 390.671875 417.09375 393.972656 417.09375 396.011719 415.058594 C 398.050781 413.023438 398.042969 409.722656 396.011719 407.683594 C 393.980469 405.640625 390.679688 405.648438 388.640625 407.683594 C 386.601562 409.714844 386.609375 413.019531 388.640625 415.058594 Z M 388.640625 415.058594 " fill-opacity="1" fill-rule="nonzero"/><path fill="#000000" d="M 468.769531 433.804688 C 467.941406 433.804688 467.257812 433.152344 467.230469 432.320312 C 467.199219 431.464844 467.863281 430.753906 468.710938 430.726562 L 486.175781 430.113281 C 487.046875 430.085938 487.742188 430.753906 487.765625 431.601562 C 487.796875 432.453125 487.128906 433.167969 486.28125 433.191406 L 468.820312 433.804688 C 468.820312 433.804688 468.785156 433.804688 468.761719 433.804688 Z M 468.769531 433.804688 " fill-opacity="1" fill-rule="nonzero"/><path fill="#000000" d="M 468.851562 427.039062 C 465.976562 427.140625 463.722656 429.554688 463.824219 432.433594 C 463.929688 435.308594 466.339844 437.5625 469.214844 437.460938 C 472.089844 437.359375 474.34375 434.945312 474.242188 432.066406 C 474.136719 429.191406 471.726562 426.933594 468.851562 427.039062 Z M 468.851562 427.039062 " fill-opacity="1" fill-rule="nonzero"/><path fill="#000000" d="M 504.832031 455.128906 C 504.339844 455.128906 503.859375 454.890625 503.558594 454.453125 C 503.082031 453.75 503.261719 452.789062 503.964844 452.3125 L 519.53125 441.71875 C 520.234375 441.242188 521.191406 441.421875 521.671875 442.125 C 522.148438 442.828125 521.96875 443.789062 521.265625 444.269531 L 505.699219 454.859375 C 505.433594 455.039062 505.136719 455.128906 504.839844 455.128906 Z M 504.832031 455.128906 " fill-opacity="1" fill-rule="nonzero"/><path fill="#000000" d="M 523.113281 447.453125 C 525.492188 445.835938 526.109375 442.585938 524.492188 440.210938 C 522.875 437.824219 519.632812 437.210938 517.253906 438.828125 C 514.875 440.445312 514.257812 443.691406 515.875 446.070312 C 517.492188 448.453125 520.734375 449.070312 523.113281 447.453125 Z M 523.113281 447.453125 " fill-opacity="1" fill-rule="nonzero"/><path fill="#000000" d="M 594.476562 367.683594 C 593.984375 367.683594 593.507812 367.453125 593.210938 367.015625 C 592.726562 366.3125 592.90625 365.359375 593.605469 364.875 L 608.398438 354.699219 C 609.097656 354.214844 610.054688 354.394531 610.539062 355.09375 C 611.019531 355.796875 610.84375 356.753906 610.144531 357.234375 L 595.351562 367.414062 C 595.082031 367.597656 594.78125 367.683594 594.476562 367.683594 Z M 594.476562 367.683594 " fill-opacity="1" fill-rule="nonzero"/><path fill="#000000" d="M 612.007812 360.410156 C 614.378906 358.777344 614.980469 355.53125 613.347656 353.15625 C 611.714844 350.785156 608.46875 350.183594 606.097656 351.816406 C 603.726562 353.449219 603.125 356.695312 604.757812 359.070312 C 606.390625 361.441406 609.636719 362.042969 612.007812 360.410156 Z M 612.007812 360.410156 " fill-opacity="1" fill-rule="nonzero"/><path fill="#000000" d="M 603.882812 394.203125 C 603.527344 394.203125 603.167969 394.078125 602.878906 393.832031 C 602.234375 393.277344 602.160156 392.304688 602.710938 391.660156 L 613.644531 378.894531 C 614.199219 378.246094 615.167969 378.175781 615.816406 378.722656 C 616.460938 379.277344 616.535156 380.25 615.984375 380.898438 L 605.050781 393.664062 C 604.75 394.015625 604.316406 394.203125 603.882812 394.203125 Z M 603.882812 394.203125 " fill-opacity="1" fill-rule="nonzero"/><path fill="#000000" d="M 618.597656 383.484375 C 620.472656 381.296875 620.21875 378.003906 618.035156 376.136719 C 615.847656 374.261719 612.554688 374.511719 610.6875 376.699219 C 608.8125 378.886719 609.070312 382.179688 611.253906 384.050781 C 613.4375 385.925781 616.730469 385.675781 618.597656 383.484375 Z M 618.597656 383.484375 " fill-opacity="1" fill-rule="nonzero"/><path fill="#000000" d="M 592.875 423.304688 C 592.460938 423.304688 592.050781 423.140625 591.746094 422.808594 C 591.167969 422.1875 591.203125 421.210938 591.828125 420.632812 L 604.710938 408.65625 C 605.335938 408.078125 606.308594 408.113281 606.890625 408.738281 C 607.46875 409.363281 607.433594 410.335938 606.808594 410.917969 L 593.921875 422.890625 C 593.625 423.167969 593.25 423.304688 592.875 423.304688 Z M 592.875 423.304688 " fill-opacity="1" fill-rule="nonzero"/><path fill="#000000" d="M 589.519531 417.765625 C 587.410156 419.722656 587.285156 423.027344 589.246094 425.136719 C 591.207031 427.25 594.503906 427.371094 596.613281 425.410156 C 598.722656 423.453125 598.847656 420.148438 596.886719 418.039062 C 594.929688 415.925781 591.628906 415.804688 589.519531 417.765625 Z M 589.519531 417.765625 " fill-opacity="1" fill-rule="nonzero"/></svg>