<svg xmlns="http://www.w3.org/2000/svg" xmlns:xlink="http://www.w3.org/1999/xlink" width="1248" zoomAndPan="magnify" viewBox="0 0 936 527.249983" height="703" preserveAspectRatio="xMidYMid meet" version="1.0"><defs><clipPath id="e25bec6705"><path d="M 201.804688 61.914062 L 734.296875 61.914062 L 734.296875 473.828125 L 201.804688 473.828125 Z M 201.804688 61.914062 " clip-rule="nonzero"/></clipPath></defs><g clip-path="url(#e25bec6705)"><path fill="#1a1a1a" d="M 714.664062 61.949219 L 221.4375 61.949219 C 210.59375 61.949219 201.804688 70.738281 201.804688 81.578125 L 201.804688 369.453125 C 201.804688 380.292969 210.59375 389.082031 221.4375 389.082031 L 426.957031 389.082031 L 426.957031 428.175781 L 360.492188 428.175781 C 347.894531 428.175781 337.679688 438.382812 337.679688 450.980469 L 337.679688 463.578125 C 337.679688 469.214844 342.25 473.785156 347.890625 473.785156 L 588.214844 473.785156 C 593.851562 473.785156 598.421875 469.214844 598.421875 463.578125 L 598.421875 450.980469 C 598.421875 438.386719 588.210938 428.175781 575.613281 428.175781 L 509.148438 428.175781 L 509.148438 389.082031 L 714.664062 389.082031 C 725.507812 389.082031 734.296875 380.292969 734.296875 369.453125 L 734.296875 81.578125 C 734.296875 70.738281 725.507812 61.949219 714.664062 61.949219 Z M 717.144531 369.453125 C 717.144531 370.820312 716.035156 371.933594 714.664062 371.933594 L 221.4375 371.933594 C 220.070312 371.933594 218.957031 370.820312 218.957031 369.453125 L 218.957031 81.578125 C 218.957031 80.210938 220.070312 79.097656 221.4375 79.097656 L 714.667969 79.097656 C 716.035156 79.097656 717.148438 80.210938 717.148438 81.578125 L 717.148438 369.453125 Z M 717.144531 369.453125 " fill-opacity="1" fill-rule="nonzero"/></g><path fill="#1a1a1a" d="M 248.308594 343.441406 L 366.488281 343.441406 L 366.488281 354.058594 L 248.308594 354.058594 Z M 248.308594 343.441406 " fill-opacity="1" fill-rule="nonzero"/><path fill="#1a1a1a" d="M 248.308594 318.964844 L 341.910156 318.964844 L 341.910156 329.582031 L 248.308594 329.582031 Z M 248.308594 318.964844 " fill-opacity="1" fill-rule="nonzero"/><path fill="#1a1a1a" d="M 248.308594 294.488281 L 318.117188 294.488281 L 318.117188 305.105469 L 248.308594 305.105469 Z M 248.308594 294.488281 " fill-opacity="1" fill-rule="nonzero"/><path fill="#1a1a1a" d="M 569.613281 343.441406 L 687.792969 343.441406 L 687.792969 354.058594 L 569.613281 354.058594 Z M 569.613281 343.441406 " fill-opacity="1" fill-rule="nonzero"/><path fill="#1a1a1a" d="M 594.195312 318.964844 L 687.792969 318.964844 L 687.792969 329.582031 L 594.195312 329.582031 Z M 594.195312 318.964844 " fill-opacity="1" fill-rule="nonzero"/><path fill="#1a1a1a" d="M 617.988281 294.488281 L 687.792969 294.488281 L 687.792969 305.105469 L 617.988281 305.105469 Z M 617.988281 294.488281 " fill-opacity="1" fill-rule="nonzero"/><path fill="#1a1a1a" d="M 420.882812 318.90625 L 501.09375 107.371094 L 515.230469 112.726562 L 435.019531 324.265625 Z M 420.882812 318.90625 " fill-opacity="1" fill-rule="nonzero"/><path fill="#1a1a1a" d="M 412.789062 155.734375 L 399.386719 142.335938 L 325.875 215.832031 L 399.386719 289.324219 L 412.789062 275.929688 L 352.679688 215.832031 Z M 412.789062 155.734375 " fill-opacity="1" fill-rule="nonzero"/><path fill="#1a1a1a" d="M 536.714844 142.335938 L 523.316406 155.734375 L 583.425781 215.832031 L 523.316406 275.929688 L 536.714844 289.324219 L 610.226562 215.832031 Z M 536.714844 142.335938 " fill-opacity="1" fill-rule="nonzero"/></svg>