<svg xmlns="http://www.w3.org/2000/svg" xmlns:xlink="http://www.w3.org/1999/xlink" width="1248" zoomAndPan="magnify" viewBox="0 0 936 527.249983" height="703" preserveAspectRatio="xMidYMid meet" version="1.0"><defs><clipPath id="23c1287477"><path d="M 326.3125 52.648438 L 609.410156 52.648438 L 609.410156 433.859375 L 326.3125 433.859375 Z M 326.3125 52.648438 " clip-rule="nonzero"/></clipPath></defs><g clip-path="url(#23c1287477)"><path fill="#000000" d="M 383.730469 200.128906 L 389.3125 200.128906 C 389.3125 203.523438 390.507812 206.917969 392.5 209.710938 C 395.492188 213.503906 399.878906 215.699219 404.859375 215.699219 L 405.261719 215.699219 C 407.652344 215.699219 410.042969 216.5 411.839844 218.296875 C 413.632812 220.09375 414.628906 222.289062 414.628906 224.6875 C 414.628906 227.082031 414.628906 226.683594 414.03125 227.679688 C 412.238281 232.671875 413.035156 237.863281 415.828125 242.054688 C 418.816406 246.25 423.800781 248.84375 428.785156 248.84375 C 433.769531 248.84375 435.5625 247.644531 438.355469 245.449219 C 439.949219 244.253906 441.941406 243.652344 443.9375 243.652344 C 447.925781 243.652344 451.511719 246.25 452.507812 250.242188 C 454.503906 257.03125 460.484375 261.621094 467.660156 261.621094 C 474.839844 261.621094 480.820312 257.230469 482.8125 250.242188 C 484.007812 246.449219 487.597656 243.652344 491.585938 243.652344 C 495.570312 243.652344 495.371094 244.253906 496.96875 245.449219 C 501.753906 249.242188 507.933594 249.84375 513.515625 247.246094 C 518.898438 244.652344 522.484375 239.0625 522.484375 233.269531 C 522.484375 227.480469 522.085938 229.675781 521.488281 227.878906 C 520.492188 225.085938 520.890625 222.089844 522.683594 219.695312 C 524.480469 217.296875 527.070312 215.902344 530.261719 215.902344 C 534.847656 215.902344 538.632812 214.503906 541.625 211.507812 C 544.617188 208.511719 546.410156 204.519531 546.410156 200.128906 L 551.992188 200.128906 C 557.175781 200.128906 561.363281 195.933594 561.363281 190.742188 L 561.363281 168.582031 C 561.363281 163.390625 557.175781 159.199219 551.992188 159.199219 L 546.410156 159.199219 C 546.410156 155.804688 545.214844 152.410156 543.21875 149.613281 C 540.230469 145.820312 535.84375 143.625 530.859375 143.625 L 530.460938 143.625 C 527.867188 143.625 525.675781 142.824219 524.082031 141.027344 C 522.285156 139.230469 521.289062 136.835938 521.289062 134.441406 C 521.289062 132.042969 521.289062 132.445312 521.886719 131.445312 C 523.683594 126.453125 522.886719 121.261719 520.09375 117.269531 C 515.109375 110.082031 504.542969 108.285156 497.566406 113.675781 C 495.171875 115.472656 492.183594 116.070312 489.191406 115.074219 C 486.402344 114.074219 484.207031 111.878906 483.410156 109.082031 C 481.417969 102.097656 475.4375 97.703125 468.257812 97.703125 C 461.082031 97.703125 455.101562 102.097656 453.109375 109.082031 C 451.910156 112.878906 448.523438 115.472656 444.535156 115.472656 C 440.546875 115.472656 441.144531 115.074219 439.152344 113.675781 C 434.367188 109.882812 428.1875 109.285156 422.605469 112.078125 C 417.222656 114.675781 413.632812 120.265625 413.632812 126.054688 C 413.632812 131.84375 414.03125 129.648438 414.628906 131.445312 C 415.625 134.242188 415.226562 137.234375 413.433594 139.632812 C 411.640625 142.027344 409.046875 143.425781 405.859375 143.425781 C 401.472656 143.425781 397.484375 144.824219 394.496094 147.816406 C 391.503906 150.8125 389.710938 155.003906 389.710938 159.199219 L 384.128906 159.199219 C 378.945312 159.199219 374.757812 163.390625 374.757812 168.582031 L 374.757812 190.742188 C 374.757812 195.933594 378.945312 200.128906 384.128906 200.128906 Z M 537.039062 206.515625 C 535.84375 207.714844 533.652344 209.113281 530.0625 208.914062 C 524.878906 208.914062 520.09375 211.308594 517.101562 215.5 C 514.113281 219.695312 513.316406 225.085938 515.109375 229.875 C 515.507812 231.074219 515.707031 232.074219 515.707031 233.070312 C 515.707031 236.464844 513.714844 239.460938 510.523438 241.058594 C 507.335938 242.65625 503.945312 242.253906 501.152344 240.058594 C 498.363281 237.863281 494.972656 236.863281 491.585938 236.863281 C 484.605469 236.863281 478.425781 241.457031 476.433594 248.246094 C 475.039062 253.039062 471.050781 254.632812 467.859375 254.632812 C 464.671875 254.632812 460.683594 252.835938 459.289062 248.246094 C 457.292969 241.457031 451.113281 236.863281 444.136719 236.863281 C 437.160156 236.863281 437.359375 238.0625 434.566406 240.058594 C 430.378906 243.253906 424.398438 242.054688 421.609375 238.0625 C 420.011719 235.667969 419.613281 232.871094 420.609375 229.875 C 421.210938 228.078125 421.609375 226.28125 421.609375 224.6875 C 421.609375 220.492188 419.8125 216.300781 416.824219 213.503906 C 413.832031 210.511719 409.84375 208.914062 405.460938 208.914062 C 402.46875 208.914062 399.878906 207.714844 398.082031 205.519531 C 396.886719 203.921875 396.289062 201.925781 396.089844 199.929688 L 430.578125 199.929688 C 437.957031 213.503906 452.308594 222.089844 467.859375 222.089844 C 483.410156 222.089844 497.765625 213.503906 505.140625 199.929688 L 539.832031 199.929688 C 539.832031 202.324219 538.835938 204.71875 537.039062 206.316406 Z M 438.355469 200.128906 L 497.367188 200.128906 C 490.789062 209.710938 479.621094 215.5 467.859375 215.5 C 456.097656 215.5 444.933594 209.511719 438.355469 200.128906 Z M 398.679688 152.609375 C 399.878906 151.410156 401.871094 150.011719 405.0625 150.214844 L 405.460938 150.214844 C 410.644531 150.214844 415.425781 147.617188 418.21875 143.625 C 421.210938 139.433594 422.007812 134.042969 420.210938 129.25 C 419.8125 128.050781 419.613281 127.054688 419.613281 126.054688 C 419.613281 122.859375 421.609375 119.664062 424.796875 118.070312 C 426.191406 117.269531 430.179688 115.871094 434.167969 119.066406 C 436.957031 121.261719 440.148438 122.261719 443.738281 122.261719 C 450.914062 122.261719 456.894531 117.667969 458.890625 110.878906 C 460.285156 106.089844 464.273438 104.292969 467.460938 104.292969 C 470.652344 104.292969 474.640625 106.089844 476.035156 110.878906 C 477.429688 115.871094 481.417969 119.867188 486.203125 121.460938 C 491.1875 123.058594 496.570312 122.0625 500.753906 118.867188 C 504.941406 115.671875 510.921875 116.871094 513.714844 120.863281 C 515.308594 123.257812 515.707031 126.054688 514.710938 129.050781 C 514.113281 130.847656 513.714844 132.644531 513.714844 134.242188 C 513.714844 138.433594 515.507812 142.625 518.5 145.621094 C 521.488281 148.417969 525.277344 150.011719 529.664062 150.011719 C 534.050781 150.011719 535.445312 151.011719 537.238281 153.40625 C 538.433594 155.003906 539.234375 157 539.234375 159 L 504.542969 159 C 497.167969 145.421875 482.8125 136.835938 467.261719 136.835938 C 451.710938 136.835938 437.359375 145.421875 429.980469 159 L 395.292969 159 C 395.292969 156.601562 396.289062 154.207031 398.082031 152.410156 Z M 497.367188 159 L 438.355469 159 C 444.933594 149.414062 456.097656 143.625 467.859375 143.625 C 479.621094 143.625 490.585938 149.613281 497.367188 159 Z M 380.9375 168.382812 C 380.9375 166.984375 382.132812 165.785156 383.527344 165.785156 L 551.792969 165.785156 C 553.1875 165.785156 554.382812 166.984375 554.382812 168.382812 L 554.382812 190.542969 C 554.382812 191.941406 553.1875 193.140625 551.792969 193.140625 L 383.527344 193.140625 C 382.132812 193.140625 380.9375 191.941406 380.9375 190.542969 Z M 573.125 52.78125 L 362.597656 52.78125 C 342.660156 52.78125 326.3125 69.152344 326.3125 89.117188 L 326.3125 406.375 C 326.3125 419.953125 336.082031 431.730469 348.839844 433.527344 C 359.40625 435.125 369.773438 430.132812 375.355469 421.148438 C 375.355469 421.148438 375.355469 420.949219 375.753906 420.949219 C 376.152344 420.949219 376.152344 420.949219 376.351562 421.347656 C 381.136719 429.136719 389.511719 433.726562 398.679688 433.726562 C 407.851562 433.726562 416.226562 429.136719 421.210938 421.347656 C 421.410156 420.949219 421.609375 420.949219 421.808594 420.949219 C 422.007812 420.949219 422.207031 420.949219 422.40625 421.347656 C 427.191406 429.136719 435.5625 433.726562 444.734375 433.726562 C 453.90625 433.726562 462.277344 429.136719 467.261719 421.347656 C 467.460938 420.949219 467.660156 420.949219 467.859375 420.949219 C 468.058594 420.949219 468.257812 420.949219 468.457031 421.347656 C 473.242188 429.136719 481.617188 433.726562 490.789062 433.726562 C 499.957031 433.726562 508.332031 429.136719 513.316406 421.347656 C 513.515625 420.949219 513.714844 420.949219 513.914062 420.949219 C 514.113281 420.949219 514.3125 420.949219 514.511719 421.347656 C 519.296875 429.136719 527.667969 433.726562 536.839844 433.726562 C 546.011719 433.726562 554.382812 429.136719 559.367188 421.148438 C 559.566406 420.75 559.964844 420.75 559.964844 420.75 C 560.167969 420.75 560.167969 420.75 560.367188 420.949219 C 565.949219 429.933594 576.316406 434.925781 586.878906 433.328125 C 599.640625 431.53125 609.410156 419.953125 609.410156 406.175781 L 609.410156 89.117188 C 609.410156 69.152344 593.0625 52.78125 573.125 52.78125 Z M 602.628906 406.375 C 602.628906 416.558594 595.453125 425.34375 585.882812 426.738281 C 578.109375 427.738281 570.332031 424.144531 566.148438 417.554688 C 564.75 415.359375 562.558594 414.160156 559.964844 414.160156 C 557.375 414.160156 554.984375 415.558594 553.585938 417.753906 C 550 423.546875 543.617188 427.140625 536.839844 427.140625 C 530.0625 427.140625 523.882812 423.746094 520.09375 417.953125 C 518.699219 415.757812 516.304688 414.359375 513.714844 414.359375 C 511.121094 414.359375 508.730469 415.757812 507.335938 417.953125 C 503.746094 423.746094 497.367188 427.140625 490.589844 427.140625 C 483.808594 427.140625 477.628906 423.746094 473.839844 417.953125 C 472.445312 415.757812 470.054688 414.359375 467.460938 414.359375 C 464.871094 414.359375 462.476562 415.757812 461.082031 417.953125 C 457.492188 423.746094 451.113281 427.140625 444.335938 427.140625 C 437.558594 427.140625 431.375 423.746094 427.589844 417.953125 C 426.191406 415.757812 423.800781 414.359375 421.210938 414.359375 C 418.617188 414.359375 416.226562 415.757812 414.828125 417.953125 C 411.242188 423.746094 404.859375 427.140625 398.082031 427.140625 C 391.304688 427.140625 384.925781 423.746094 381.335938 417.953125 C 379.941406 415.757812 377.546875 414.359375 374.957031 414.359375 C 372.363281 414.359375 370.171875 415.757812 368.777344 417.753906 C 364.589844 424.542969 357.015625 428.136719 349.039062 426.9375 C 339.46875 425.542969 332.292969 416.757812 332.292969 406.375 L 332.292969 89.117188 C 332.292969 72.746094 345.648438 59.570312 361.796875 59.570312 L 572.328125 59.570312 C 588.675781 59.570312 601.832031 72.945312 601.832031 89.117188 L 601.832031 406.375 Z M 361.597656 294.566406 C 361.597656 292.769531 363.195312 291.171875 364.988281 291.171875 L 411.640625 291.171875 C 413.433594 291.171875 415.027344 292.769531 415.027344 294.566406 C 415.027344 296.363281 413.433594 297.960938 411.640625 297.960938 L 364.988281 297.960938 C 363.195312 297.960938 361.597656 296.363281 361.597656 294.566406 Z M 575.316406 327.507812 C 575.316406 329.304688 573.722656 330.902344 571.929688 330.902344 L 525.277344 330.902344 C 523.484375 330.902344 521.886719 329.304688 521.886719 327.507812 C 521.886719 325.710938 523.484375 324.117188 525.277344 324.117188 L 571.929688 324.117188 C 573.722656 324.117188 575.316406 325.710938 575.316406 327.507812 Z M 476.632812 363.648438 C 476.632812 365.445312 475.039062 367.042969 473.242188 367.042969 L 364.988281 367.042969 C 363.195312 367.042969 361.597656 365.445312 361.597656 363.648438 C 361.597656 361.851562 363.195312 360.253906 364.988281 360.253906 L 473.242188 360.253906 C 475.039062 360.253906 476.632812 361.851562 476.632812 363.648438 Z M 575.316406 363.648438 C 575.316406 365.445312 573.722656 367.042969 571.929688 367.042969 L 525.277344 367.042969 C 523.484375 367.042969 521.886719 365.445312 521.886719 363.648438 C 521.886719 361.851562 523.484375 360.253906 525.277344 360.253906 L 571.929688 360.253906 C 573.722656 360.253906 575.316406 361.851562 575.316406 363.648438 Z M 575.316406 294.566406 C 575.316406 296.363281 573.722656 297.960938 571.929688 297.960938 L 444.734375 297.960938 C 442.941406 297.960938 441.34375 296.363281 441.34375 294.566406 C 441.34375 292.769531 442.941406 291.171875 444.734375 291.171875 L 571.929688 291.171875 C 573.722656 291.171875 575.316406 292.769531 575.316406 294.566406 Z M 495.371094 327.507812 C 495.371094 329.304688 493.777344 330.902344 491.984375 330.902344 L 364.789062 330.902344 C 362.996094 330.902344 361.398438 329.304688 361.398438 327.507812 C 361.398438 325.710938 362.996094 324.117188 364.789062 324.117188 L 491.984375 324.117188 C 493.777344 324.117188 495.371094 325.710938 495.371094 327.507812 Z M 495.371094 327.507812 " fill-opacity="1" fill-rule="nonzero"/></g></svg>